%TF.GenerationSoftware,KiCad,Pcbnew,10.0.1*%
%TF.CreationDate,2026-05-11T17:42:04+02:00*%
%TF.ProjectId,divtiesus-acer-v0.1,64697674-6965-4737-9573-2d616365722d,rev?*%
%TF.SameCoordinates,Original*%
%TF.FileFunction,Legend,Bot*%
%TF.FilePolarity,Positive*%
%FSLAX46Y46*%
G04 Gerber Fmt 4.6, Leading zero omitted, Abs format (unit mm)*
G04 Created by KiCad (PCBNEW 10.0.1) date 2026-05-11 17:42:04*
%MOMM*%
%LPD*%
G01*
G04 APERTURE LIST*
%ADD10C,0.150000*%
%ADD11C,0.300000*%
%ADD12C,0.200000*%
%ADD13C,0.120000*%
%ADD14C,0.000000*%
G04 APERTURE END LIST*
D10*
X113045030Y-91324961D02*
X112625982Y-91324961D01*
X112625982Y-91324961D02*
X113045030Y-91858295D01*
X113045030Y-91858295D02*
X112625982Y-91858295D01*
X112321220Y-91858295D02*
X112321220Y-91058295D01*
X111940268Y-91858295D02*
X111940268Y-91058295D01*
X111559316Y-91324961D02*
X111559316Y-92124961D01*
X111559316Y-91363057D02*
X111483126Y-91324961D01*
X111483126Y-91324961D02*
X111330745Y-91324961D01*
X111330745Y-91324961D02*
X111254554Y-91363057D01*
X111254554Y-91363057D02*
X111216459Y-91401152D01*
X111216459Y-91401152D02*
X111178364Y-91477342D01*
X111178364Y-91477342D02*
X111178364Y-91705914D01*
X111178364Y-91705914D02*
X111216459Y-91782104D01*
X111216459Y-91782104D02*
X111254554Y-91820200D01*
X111254554Y-91820200D02*
X111330745Y-91858295D01*
X111330745Y-91858295D02*
X111483126Y-91858295D01*
X111483126Y-91858295D02*
X111559316Y-91820200D01*
X110835506Y-91782104D02*
X110797411Y-91820200D01*
X110797411Y-91820200D02*
X110835506Y-91858295D01*
X110835506Y-91858295D02*
X110873602Y-91820200D01*
X110873602Y-91820200D02*
X110835506Y-91782104D01*
X110835506Y-91782104D02*
X110835506Y-91858295D01*
X110835506Y-91553533D02*
X110873602Y-91096390D01*
X110873602Y-91096390D02*
X110835506Y-91058295D01*
X110835506Y-91058295D02*
X110797411Y-91096390D01*
X110797411Y-91096390D02*
X110835506Y-91553533D01*
X110835506Y-91553533D02*
X110835506Y-91058295D01*
X117293792Y-86978295D02*
X116760458Y-86978295D01*
X116760458Y-86978295D02*
X117393792Y-87778295D01*
X117393792Y-87778295D02*
X116860458Y-87778295D01*
X116565220Y-87549723D02*
X116184268Y-87549723D01*
X116669982Y-87778295D02*
X116303315Y-86978295D01*
X116303315Y-86978295D02*
X116136649Y-87778295D01*
X115879506Y-87549723D02*
X115498554Y-87549723D01*
X115984268Y-87778295D02*
X115617601Y-86978295D01*
X115617601Y-86978295D02*
X115450935Y-87778295D01*
X115184268Y-87778295D02*
X115084268Y-86978295D01*
X115084268Y-86978295D02*
X114779506Y-86978295D01*
X114779506Y-86978295D02*
X114708078Y-87016390D01*
X114708078Y-87016390D02*
X114674744Y-87054485D01*
X114674744Y-87054485D02*
X114646173Y-87130676D01*
X114646173Y-87130676D02*
X114660459Y-87244961D01*
X114660459Y-87244961D02*
X114708078Y-87321152D01*
X114708078Y-87321152D02*
X114750935Y-87359247D01*
X114750935Y-87359247D02*
X114831887Y-87397342D01*
X114831887Y-87397342D02*
X115136649Y-87397342D01*
X114374744Y-87702104D02*
X114341411Y-87740200D01*
X114341411Y-87740200D02*
X114384268Y-87778295D01*
X114384268Y-87778295D02*
X114417602Y-87740200D01*
X114417602Y-87740200D02*
X114374744Y-87702104D01*
X114374744Y-87702104D02*
X114384268Y-87778295D01*
X114346173Y-87473533D02*
X114327125Y-87016390D01*
X114327125Y-87016390D02*
X114284268Y-86978295D01*
X114284268Y-86978295D02*
X114250935Y-87016390D01*
X114250935Y-87016390D02*
X114346173Y-87473533D01*
X114346173Y-87473533D02*
X114284268Y-86978295D01*
X120189792Y-89928295D02*
X119656458Y-89928295D01*
X119656458Y-89928295D02*
X120289792Y-90728295D01*
X120289792Y-90728295D02*
X119756458Y-90728295D01*
X119199315Y-89928295D02*
X119046934Y-89928295D01*
X119046934Y-89928295D02*
X118975506Y-89966390D01*
X118975506Y-89966390D02*
X118908839Y-90042580D01*
X118908839Y-90042580D02*
X118889791Y-90194961D01*
X118889791Y-90194961D02*
X118923125Y-90461628D01*
X118923125Y-90461628D02*
X118980268Y-90614009D01*
X118980268Y-90614009D02*
X119065982Y-90690200D01*
X119065982Y-90690200D02*
X119146934Y-90728295D01*
X119146934Y-90728295D02*
X119299315Y-90728295D01*
X119299315Y-90728295D02*
X119370744Y-90690200D01*
X119370744Y-90690200D02*
X119437411Y-90614009D01*
X119437411Y-90614009D02*
X119456458Y-90461628D01*
X119456458Y-90461628D02*
X119423125Y-90194961D01*
X119423125Y-90194961D02*
X119365982Y-90042580D01*
X119365982Y-90042580D02*
X119280268Y-89966390D01*
X119280268Y-89966390D02*
X119199315Y-89928295D01*
X118499316Y-90728295D02*
X118570744Y-90690200D01*
X118570744Y-90690200D02*
X118604077Y-90652104D01*
X118604077Y-90652104D02*
X118632649Y-90575914D01*
X118632649Y-90575914D02*
X118604077Y-90347342D01*
X118604077Y-90347342D02*
X118556458Y-90271152D01*
X118556458Y-90271152D02*
X118513601Y-90233057D01*
X118513601Y-90233057D02*
X118432649Y-90194961D01*
X118432649Y-90194961D02*
X118318363Y-90194961D01*
X118318363Y-90194961D02*
X118246935Y-90233057D01*
X118246935Y-90233057D02*
X118213601Y-90271152D01*
X118213601Y-90271152D02*
X118185030Y-90347342D01*
X118185030Y-90347342D02*
X118213601Y-90575914D01*
X118213601Y-90575914D02*
X118261220Y-90652104D01*
X118261220Y-90652104D02*
X118304077Y-90690200D01*
X118304077Y-90690200D02*
X118385030Y-90728295D01*
X118385030Y-90728295D02*
X118499316Y-90728295D01*
X117823125Y-90194961D02*
X117923125Y-90994961D01*
X117827886Y-90233057D02*
X117746934Y-90194961D01*
X117746934Y-90194961D02*
X117594553Y-90194961D01*
X117594553Y-90194961D02*
X117523125Y-90233057D01*
X117523125Y-90233057D02*
X117489791Y-90271152D01*
X117489791Y-90271152D02*
X117461220Y-90347342D01*
X117461220Y-90347342D02*
X117489791Y-90575914D01*
X117489791Y-90575914D02*
X117537410Y-90652104D01*
X117537410Y-90652104D02*
X117580267Y-90690200D01*
X117580267Y-90690200D02*
X117661220Y-90728295D01*
X117661220Y-90728295D02*
X117813601Y-90728295D01*
X117813601Y-90728295D02*
X117885029Y-90690200D01*
X117156457Y-90652104D02*
X117123124Y-90690200D01*
X117123124Y-90690200D02*
X117165981Y-90728295D01*
X117165981Y-90728295D02*
X117199315Y-90690200D01*
X117199315Y-90690200D02*
X117156457Y-90652104D01*
X117156457Y-90652104D02*
X117165981Y-90728295D01*
X117127886Y-90423533D02*
X117108838Y-89966390D01*
X117108838Y-89966390D02*
X117065981Y-89928295D01*
X117065981Y-89928295D02*
X117032648Y-89966390D01*
X117032648Y-89966390D02*
X117127886Y-90423533D01*
X117127886Y-90423533D02*
X117065981Y-89928295D01*
X73289792Y-87533819D02*
X73623125Y-87057628D01*
X73861220Y-87533819D02*
X73861220Y-86533819D01*
X73861220Y-86533819D02*
X73480268Y-86533819D01*
X73480268Y-86533819D02*
X73385030Y-86581438D01*
X73385030Y-86581438D02*
X73337411Y-86629057D01*
X73337411Y-86629057D02*
X73289792Y-86724295D01*
X73289792Y-86724295D02*
X73289792Y-86867152D01*
X73289792Y-86867152D02*
X73337411Y-86962390D01*
X73337411Y-86962390D02*
X73385030Y-87010009D01*
X73385030Y-87010009D02*
X73480268Y-87057628D01*
X73480268Y-87057628D02*
X73861220Y-87057628D01*
X72908839Y-87486200D02*
X72765982Y-87533819D01*
X72765982Y-87533819D02*
X72527887Y-87533819D01*
X72527887Y-87533819D02*
X72432649Y-87486200D01*
X72432649Y-87486200D02*
X72385030Y-87438580D01*
X72385030Y-87438580D02*
X72337411Y-87343342D01*
X72337411Y-87343342D02*
X72337411Y-87248104D01*
X72337411Y-87248104D02*
X72385030Y-87152866D01*
X72385030Y-87152866D02*
X72432649Y-87105247D01*
X72432649Y-87105247D02*
X72527887Y-87057628D01*
X72527887Y-87057628D02*
X72718363Y-87010009D01*
X72718363Y-87010009D02*
X72813601Y-86962390D01*
X72813601Y-86962390D02*
X72861220Y-86914771D01*
X72861220Y-86914771D02*
X72908839Y-86819533D01*
X72908839Y-86819533D02*
X72908839Y-86724295D01*
X72908839Y-86724295D02*
X72861220Y-86629057D01*
X72861220Y-86629057D02*
X72813601Y-86581438D01*
X72813601Y-86581438D02*
X72718363Y-86533819D01*
X72718363Y-86533819D02*
X72480268Y-86533819D01*
X72480268Y-86533819D02*
X72337411Y-86581438D01*
X72051696Y-86533819D02*
X71480268Y-86533819D01*
X71765982Y-87533819D02*
X71765982Y-86533819D01*
X84121220Y-87533819D02*
X84121220Y-86533819D01*
X84121220Y-86533819D02*
X83549792Y-87533819D01*
X83549792Y-87533819D02*
X83549792Y-86533819D01*
X83073601Y-87533819D02*
X83073601Y-86533819D01*
X83073601Y-86533819D02*
X82740268Y-87248104D01*
X82740268Y-87248104D02*
X82406935Y-86533819D01*
X82406935Y-86533819D02*
X82406935Y-87533819D01*
X81930744Y-87533819D02*
X81930744Y-86533819D01*
X135645506Y-108004883D02*
X135693125Y-107957264D01*
X135693125Y-107957264D02*
X135788363Y-107814407D01*
X135788363Y-107814407D02*
X135835982Y-107719169D01*
X135835982Y-107719169D02*
X135883601Y-107576312D01*
X135883601Y-107576312D02*
X135931220Y-107338216D01*
X135931220Y-107338216D02*
X135931220Y-107147740D01*
X135931220Y-107147740D02*
X135883601Y-106909645D01*
X135883601Y-106909645D02*
X135835982Y-106766788D01*
X135835982Y-106766788D02*
X135788363Y-106671550D01*
X135788363Y-106671550D02*
X135693125Y-106528692D01*
X135693125Y-106528692D02*
X135645506Y-106481073D01*
X134835982Y-107576312D02*
X134931220Y-107623931D01*
X134931220Y-107623931D02*
X135121696Y-107623931D01*
X135121696Y-107623931D02*
X135216934Y-107576312D01*
X135216934Y-107576312D02*
X135264553Y-107528692D01*
X135264553Y-107528692D02*
X135312172Y-107433454D01*
X135312172Y-107433454D02*
X135312172Y-107147740D01*
X135312172Y-107147740D02*
X135264553Y-107052502D01*
X135264553Y-107052502D02*
X135216934Y-107004883D01*
X135216934Y-107004883D02*
X135121696Y-106957264D01*
X135121696Y-106957264D02*
X134931220Y-106957264D01*
X134931220Y-106957264D02*
X134835982Y-107004883D01*
X134502648Y-108004883D02*
X134455029Y-107957264D01*
X134455029Y-107957264D02*
X134359791Y-107814407D01*
X134359791Y-107814407D02*
X134312172Y-107719169D01*
X134312172Y-107719169D02*
X134264553Y-107576312D01*
X134264553Y-107576312D02*
X134216934Y-107338216D01*
X134216934Y-107338216D02*
X134216934Y-107147740D01*
X134216934Y-107147740D02*
X134264553Y-106909645D01*
X134264553Y-106909645D02*
X134312172Y-106766788D01*
X134312172Y-106766788D02*
X134359791Y-106671550D01*
X134359791Y-106671550D02*
X134455029Y-106528692D01*
X134455029Y-106528692D02*
X134502648Y-106481073D01*
X133026457Y-106719169D02*
X132978838Y-106671550D01*
X132978838Y-106671550D02*
X132883600Y-106623931D01*
X132883600Y-106623931D02*
X132645505Y-106623931D01*
X132645505Y-106623931D02*
X132550267Y-106671550D01*
X132550267Y-106671550D02*
X132502648Y-106719169D01*
X132502648Y-106719169D02*
X132455029Y-106814407D01*
X132455029Y-106814407D02*
X132455029Y-106909645D01*
X132455029Y-106909645D02*
X132502648Y-107052502D01*
X132502648Y-107052502D02*
X133074076Y-107623931D01*
X133074076Y-107623931D02*
X132455029Y-107623931D01*
X131835981Y-106623931D02*
X131740743Y-106623931D01*
X131740743Y-106623931D02*
X131645505Y-106671550D01*
X131645505Y-106671550D02*
X131597886Y-106719169D01*
X131597886Y-106719169D02*
X131550267Y-106814407D01*
X131550267Y-106814407D02*
X131502648Y-107004883D01*
X131502648Y-107004883D02*
X131502648Y-107242978D01*
X131502648Y-107242978D02*
X131550267Y-107433454D01*
X131550267Y-107433454D02*
X131597886Y-107528692D01*
X131597886Y-107528692D02*
X131645505Y-107576312D01*
X131645505Y-107576312D02*
X131740743Y-107623931D01*
X131740743Y-107623931D02*
X131835981Y-107623931D01*
X131835981Y-107623931D02*
X131931219Y-107576312D01*
X131931219Y-107576312D02*
X131978838Y-107528692D01*
X131978838Y-107528692D02*
X132026457Y-107433454D01*
X132026457Y-107433454D02*
X132074076Y-107242978D01*
X132074076Y-107242978D02*
X132074076Y-107004883D01*
X132074076Y-107004883D02*
X132026457Y-106814407D01*
X132026457Y-106814407D02*
X131978838Y-106719169D01*
X131978838Y-106719169D02*
X131931219Y-106671550D01*
X131931219Y-106671550D02*
X131835981Y-106623931D01*
X131121695Y-106719169D02*
X131074076Y-106671550D01*
X131074076Y-106671550D02*
X130978838Y-106623931D01*
X130978838Y-106623931D02*
X130740743Y-106623931D01*
X130740743Y-106623931D02*
X130645505Y-106671550D01*
X130645505Y-106671550D02*
X130597886Y-106719169D01*
X130597886Y-106719169D02*
X130550267Y-106814407D01*
X130550267Y-106814407D02*
X130550267Y-106909645D01*
X130550267Y-106909645D02*
X130597886Y-107052502D01*
X130597886Y-107052502D02*
X131169314Y-107623931D01*
X131169314Y-107623931D02*
X130550267Y-107623931D01*
X129645505Y-106623931D02*
X130121695Y-106623931D01*
X130121695Y-106623931D02*
X130169314Y-107100121D01*
X130169314Y-107100121D02*
X130121695Y-107052502D01*
X130121695Y-107052502D02*
X130026457Y-107004883D01*
X130026457Y-107004883D02*
X129788362Y-107004883D01*
X129788362Y-107004883D02*
X129693124Y-107052502D01*
X129693124Y-107052502D02*
X129645505Y-107100121D01*
X129645505Y-107100121D02*
X129597886Y-107195359D01*
X129597886Y-107195359D02*
X129597886Y-107433454D01*
X129597886Y-107433454D02*
X129645505Y-107528692D01*
X129645505Y-107528692D02*
X129693124Y-107576312D01*
X129693124Y-107576312D02*
X129788362Y-107623931D01*
X129788362Y-107623931D02*
X130026457Y-107623931D01*
X130026457Y-107623931D02*
X130121695Y-107576312D01*
X130121695Y-107576312D02*
X130169314Y-107528692D01*
X128455028Y-107338216D02*
X127978838Y-107338216D01*
X128550266Y-107623931D02*
X128216933Y-106623931D01*
X128216933Y-106623931D02*
X127883600Y-107623931D01*
X127550266Y-107623931D02*
X127550266Y-106957264D01*
X127550266Y-107147740D02*
X127502647Y-107052502D01*
X127502647Y-107052502D02*
X127455028Y-107004883D01*
X127455028Y-107004883D02*
X127359790Y-106957264D01*
X127359790Y-106957264D02*
X127264552Y-106957264D01*
X126788361Y-107623931D02*
X126883599Y-107576312D01*
X126883599Y-107576312D02*
X126931218Y-107481073D01*
X126931218Y-107481073D02*
X126931218Y-106623931D01*
X126026456Y-107576312D02*
X126121694Y-107623931D01*
X126121694Y-107623931D02*
X126312170Y-107623931D01*
X126312170Y-107623931D02*
X126407408Y-107576312D01*
X126407408Y-107576312D02*
X126455027Y-107481073D01*
X126455027Y-107481073D02*
X126455027Y-107100121D01*
X126455027Y-107100121D02*
X126407408Y-107004883D01*
X126407408Y-107004883D02*
X126312170Y-106957264D01*
X126312170Y-106957264D02*
X126121694Y-106957264D01*
X126121694Y-106957264D02*
X126026456Y-107004883D01*
X126026456Y-107004883D02*
X125978837Y-107100121D01*
X125978837Y-107100121D02*
X125978837Y-107195359D01*
X125978837Y-107195359D02*
X126455027Y-107290597D01*
X125645503Y-106957264D02*
X125407408Y-107623931D01*
X125169313Y-106957264D02*
X125407408Y-107623931D01*
X125407408Y-107623931D02*
X125502646Y-107862026D01*
X125502646Y-107862026D02*
X125550265Y-107909645D01*
X125550265Y-107909645D02*
X125645503Y-107957264D01*
X124502646Y-106623931D02*
X124502646Y-107338216D01*
X124502646Y-107338216D02*
X124550265Y-107481073D01*
X124550265Y-107481073D02*
X124645503Y-107576312D01*
X124645503Y-107576312D02*
X124788360Y-107623931D01*
X124788360Y-107623931D02*
X124883598Y-107623931D01*
X124026455Y-107623931D02*
X124026455Y-106957264D01*
X124026455Y-107147740D02*
X123978836Y-107052502D01*
X123978836Y-107052502D02*
X123931217Y-107004883D01*
X123931217Y-107004883D02*
X123835979Y-106957264D01*
X123835979Y-106957264D02*
X123740741Y-106957264D01*
X135645506Y-109614827D02*
X135693125Y-109567208D01*
X135693125Y-109567208D02*
X135788363Y-109424351D01*
X135788363Y-109424351D02*
X135835982Y-109329113D01*
X135835982Y-109329113D02*
X135883601Y-109186256D01*
X135883601Y-109186256D02*
X135931220Y-108948160D01*
X135931220Y-108948160D02*
X135931220Y-108757684D01*
X135931220Y-108757684D02*
X135883601Y-108519589D01*
X135883601Y-108519589D02*
X135835982Y-108376732D01*
X135835982Y-108376732D02*
X135788363Y-108281494D01*
X135788363Y-108281494D02*
X135693125Y-108138636D01*
X135693125Y-108138636D02*
X135645506Y-108091017D01*
X134835982Y-109186256D02*
X134931220Y-109233875D01*
X134931220Y-109233875D02*
X135121696Y-109233875D01*
X135121696Y-109233875D02*
X135216934Y-109186256D01*
X135216934Y-109186256D02*
X135264553Y-109138636D01*
X135264553Y-109138636D02*
X135312172Y-109043398D01*
X135312172Y-109043398D02*
X135312172Y-108757684D01*
X135312172Y-108757684D02*
X135264553Y-108662446D01*
X135264553Y-108662446D02*
X135216934Y-108614827D01*
X135216934Y-108614827D02*
X135121696Y-108567208D01*
X135121696Y-108567208D02*
X134931220Y-108567208D01*
X134931220Y-108567208D02*
X134835982Y-108614827D01*
X134502648Y-109614827D02*
X134455029Y-109567208D01*
X134455029Y-109567208D02*
X134359791Y-109424351D01*
X134359791Y-109424351D02*
X134312172Y-109329113D01*
X134312172Y-109329113D02*
X134264553Y-109186256D01*
X134264553Y-109186256D02*
X134216934Y-108948160D01*
X134216934Y-108948160D02*
X134216934Y-108757684D01*
X134216934Y-108757684D02*
X134264553Y-108519589D01*
X134264553Y-108519589D02*
X134312172Y-108376732D01*
X134312172Y-108376732D02*
X134359791Y-108281494D01*
X134359791Y-108281494D02*
X134455029Y-108138636D01*
X134455029Y-108138636D02*
X134502648Y-108091017D01*
X133026457Y-108329113D02*
X132978838Y-108281494D01*
X132978838Y-108281494D02*
X132883600Y-108233875D01*
X132883600Y-108233875D02*
X132645505Y-108233875D01*
X132645505Y-108233875D02*
X132550267Y-108281494D01*
X132550267Y-108281494D02*
X132502648Y-108329113D01*
X132502648Y-108329113D02*
X132455029Y-108424351D01*
X132455029Y-108424351D02*
X132455029Y-108519589D01*
X132455029Y-108519589D02*
X132502648Y-108662446D01*
X132502648Y-108662446D02*
X133074076Y-109233875D01*
X133074076Y-109233875D02*
X132455029Y-109233875D01*
X131835981Y-108233875D02*
X131740743Y-108233875D01*
X131740743Y-108233875D02*
X131645505Y-108281494D01*
X131645505Y-108281494D02*
X131597886Y-108329113D01*
X131597886Y-108329113D02*
X131550267Y-108424351D01*
X131550267Y-108424351D02*
X131502648Y-108614827D01*
X131502648Y-108614827D02*
X131502648Y-108852922D01*
X131502648Y-108852922D02*
X131550267Y-109043398D01*
X131550267Y-109043398D02*
X131597886Y-109138636D01*
X131597886Y-109138636D02*
X131645505Y-109186256D01*
X131645505Y-109186256D02*
X131740743Y-109233875D01*
X131740743Y-109233875D02*
X131835981Y-109233875D01*
X131835981Y-109233875D02*
X131931219Y-109186256D01*
X131931219Y-109186256D02*
X131978838Y-109138636D01*
X131978838Y-109138636D02*
X132026457Y-109043398D01*
X132026457Y-109043398D02*
X132074076Y-108852922D01*
X132074076Y-108852922D02*
X132074076Y-108614827D01*
X132074076Y-108614827D02*
X132026457Y-108424351D01*
X132026457Y-108424351D02*
X131978838Y-108329113D01*
X131978838Y-108329113D02*
X131931219Y-108281494D01*
X131931219Y-108281494D02*
X131835981Y-108233875D01*
X131121695Y-108329113D02*
X131074076Y-108281494D01*
X131074076Y-108281494D02*
X130978838Y-108233875D01*
X130978838Y-108233875D02*
X130740743Y-108233875D01*
X130740743Y-108233875D02*
X130645505Y-108281494D01*
X130645505Y-108281494D02*
X130597886Y-108329113D01*
X130597886Y-108329113D02*
X130550267Y-108424351D01*
X130550267Y-108424351D02*
X130550267Y-108519589D01*
X130550267Y-108519589D02*
X130597886Y-108662446D01*
X130597886Y-108662446D02*
X131169314Y-109233875D01*
X131169314Y-109233875D02*
X130550267Y-109233875D01*
X129693124Y-108567208D02*
X129693124Y-109233875D01*
X129931219Y-108186256D02*
X130169314Y-108900541D01*
X130169314Y-108900541D02*
X129550267Y-108900541D01*
X128550266Y-108233875D02*
X128216933Y-109233875D01*
X128216933Y-109233875D02*
X127883600Y-108233875D01*
X127121695Y-109233875D02*
X127121695Y-108710065D01*
X127121695Y-108710065D02*
X127169314Y-108614827D01*
X127169314Y-108614827D02*
X127264552Y-108567208D01*
X127264552Y-108567208D02*
X127455028Y-108567208D01*
X127455028Y-108567208D02*
X127550266Y-108614827D01*
X127121695Y-109186256D02*
X127216933Y-109233875D01*
X127216933Y-109233875D02*
X127455028Y-109233875D01*
X127455028Y-109233875D02*
X127550266Y-109186256D01*
X127550266Y-109186256D02*
X127597885Y-109091017D01*
X127597885Y-109091017D02*
X127597885Y-108995779D01*
X127597885Y-108995779D02*
X127550266Y-108900541D01*
X127550266Y-108900541D02*
X127455028Y-108852922D01*
X127455028Y-108852922D02*
X127216933Y-108852922D01*
X127216933Y-108852922D02*
X127121695Y-108805303D01*
X126693123Y-109186256D02*
X126597885Y-109233875D01*
X126597885Y-109233875D02*
X126407409Y-109233875D01*
X126407409Y-109233875D02*
X126312171Y-109186256D01*
X126312171Y-109186256D02*
X126264552Y-109091017D01*
X126264552Y-109091017D02*
X126264552Y-109043398D01*
X126264552Y-109043398D02*
X126312171Y-108948160D01*
X126312171Y-108948160D02*
X126407409Y-108900541D01*
X126407409Y-108900541D02*
X126550266Y-108900541D01*
X126550266Y-108900541D02*
X126645504Y-108852922D01*
X126645504Y-108852922D02*
X126693123Y-108757684D01*
X126693123Y-108757684D02*
X126693123Y-108710065D01*
X126693123Y-108710065D02*
X126645504Y-108614827D01*
X126645504Y-108614827D02*
X126550266Y-108567208D01*
X126550266Y-108567208D02*
X126407409Y-108567208D01*
X126407409Y-108567208D02*
X126312171Y-108614827D01*
X125835980Y-109233875D02*
X125835980Y-108567208D01*
X125835980Y-108233875D02*
X125883599Y-108281494D01*
X125883599Y-108281494D02*
X125835980Y-108329113D01*
X125835980Y-108329113D02*
X125788361Y-108281494D01*
X125788361Y-108281494D02*
X125835980Y-108233875D01*
X125835980Y-108233875D02*
X125835980Y-108329113D01*
X125216933Y-109233875D02*
X125312171Y-109186256D01*
X125312171Y-109186256D02*
X125359790Y-109091017D01*
X125359790Y-109091017D02*
X125359790Y-108233875D01*
X124931218Y-108567208D02*
X124693123Y-109233875D01*
X124455028Y-108567208D02*
X124693123Y-109233875D01*
X124693123Y-109233875D02*
X124788361Y-109471970D01*
X124788361Y-109471970D02*
X124835980Y-109519589D01*
X124835980Y-109519589D02*
X124931218Y-109567208D01*
X123312170Y-109233875D02*
X123312170Y-108233875D01*
X122740742Y-109233875D02*
X123169313Y-108662446D01*
X122740742Y-108233875D02*
X123312170Y-108805303D01*
X122312170Y-109233875D02*
X122312170Y-108233875D01*
X121883599Y-109233875D02*
X121883599Y-108710065D01*
X121883599Y-108710065D02*
X121931218Y-108614827D01*
X121931218Y-108614827D02*
X122026456Y-108567208D01*
X122026456Y-108567208D02*
X122169313Y-108567208D01*
X122169313Y-108567208D02*
X122264551Y-108614827D01*
X122264551Y-108614827D02*
X122312170Y-108662446D01*
X121264551Y-109233875D02*
X121359789Y-109186256D01*
X121359789Y-109186256D02*
X121407408Y-109138636D01*
X121407408Y-109138636D02*
X121455027Y-109043398D01*
X121455027Y-109043398D02*
X121455027Y-108757684D01*
X121455027Y-108757684D02*
X121407408Y-108662446D01*
X121407408Y-108662446D02*
X121359789Y-108614827D01*
X121359789Y-108614827D02*
X121264551Y-108567208D01*
X121264551Y-108567208D02*
X121121694Y-108567208D01*
X121121694Y-108567208D02*
X121026456Y-108614827D01*
X121026456Y-108614827D02*
X120978837Y-108662446D01*
X120978837Y-108662446D02*
X120931218Y-108757684D01*
X120931218Y-108757684D02*
X120931218Y-109043398D01*
X120931218Y-109043398D02*
X120978837Y-109138636D01*
X120978837Y-109138636D02*
X121026456Y-109186256D01*
X121026456Y-109186256D02*
X121121694Y-109233875D01*
X121121694Y-109233875D02*
X121264551Y-109233875D01*
X120502646Y-109233875D02*
X120502646Y-108567208D01*
X120502646Y-108757684D02*
X120455027Y-108662446D01*
X120455027Y-108662446D02*
X120407408Y-108614827D01*
X120407408Y-108614827D02*
X120312170Y-108567208D01*
X120312170Y-108567208D02*
X120216932Y-108567208D01*
X119455027Y-108567208D02*
X119455027Y-109233875D01*
X119883598Y-108567208D02*
X119883598Y-109091017D01*
X119883598Y-109091017D02*
X119835979Y-109186256D01*
X119835979Y-109186256D02*
X119740741Y-109233875D01*
X119740741Y-109233875D02*
X119597884Y-109233875D01*
X119597884Y-109233875D02*
X119502646Y-109186256D01*
X119502646Y-109186256D02*
X119455027Y-109138636D01*
X119074074Y-108567208D02*
X118550265Y-108567208D01*
X118550265Y-108567208D02*
X119074074Y-109233875D01*
X119074074Y-109233875D02*
X118550265Y-109233875D01*
X118169312Y-109233875D02*
X118169312Y-108233875D01*
X117740741Y-109233875D02*
X117740741Y-108710065D01*
X117740741Y-108710065D02*
X117788360Y-108614827D01*
X117788360Y-108614827D02*
X117883598Y-108567208D01*
X117883598Y-108567208D02*
X118026455Y-108567208D01*
X118026455Y-108567208D02*
X118121693Y-108614827D01*
X118121693Y-108614827D02*
X118169312Y-108662446D01*
X117264550Y-109233875D02*
X117264550Y-108567208D01*
X117264550Y-108233875D02*
X117312169Y-108281494D01*
X117312169Y-108281494D02*
X117264550Y-108329113D01*
X117264550Y-108329113D02*
X117216931Y-108281494D01*
X117216931Y-108281494D02*
X117264550Y-108233875D01*
X117264550Y-108233875D02*
X117264550Y-108329113D01*
X116359789Y-109186256D02*
X116455027Y-109233875D01*
X116455027Y-109233875D02*
X116645503Y-109233875D01*
X116645503Y-109233875D02*
X116740741Y-109186256D01*
X116740741Y-109186256D02*
X116788360Y-109138636D01*
X116788360Y-109138636D02*
X116835979Y-109043398D01*
X116835979Y-109043398D02*
X116835979Y-108757684D01*
X116835979Y-108757684D02*
X116788360Y-108662446D01*
X116788360Y-108662446D02*
X116740741Y-108614827D01*
X116740741Y-108614827D02*
X116645503Y-108567208D01*
X116645503Y-108567208D02*
X116455027Y-108567208D01*
X116455027Y-108567208D02*
X116359789Y-108614827D01*
X115931217Y-109233875D02*
X115931217Y-108233875D01*
X115835979Y-108852922D02*
X115550265Y-109233875D01*
X115550265Y-108567208D02*
X115931217Y-108948160D01*
X135645506Y-111224771D02*
X135693125Y-111177152D01*
X135693125Y-111177152D02*
X135788363Y-111034295D01*
X135788363Y-111034295D02*
X135835982Y-110939057D01*
X135835982Y-110939057D02*
X135883601Y-110796200D01*
X135883601Y-110796200D02*
X135931220Y-110558104D01*
X135931220Y-110558104D02*
X135931220Y-110367628D01*
X135931220Y-110367628D02*
X135883601Y-110129533D01*
X135883601Y-110129533D02*
X135835982Y-109986676D01*
X135835982Y-109986676D02*
X135788363Y-109891438D01*
X135788363Y-109891438D02*
X135693125Y-109748580D01*
X135693125Y-109748580D02*
X135645506Y-109700961D01*
X134835982Y-110796200D02*
X134931220Y-110843819D01*
X134931220Y-110843819D02*
X135121696Y-110843819D01*
X135121696Y-110843819D02*
X135216934Y-110796200D01*
X135216934Y-110796200D02*
X135264553Y-110748580D01*
X135264553Y-110748580D02*
X135312172Y-110653342D01*
X135312172Y-110653342D02*
X135312172Y-110367628D01*
X135312172Y-110367628D02*
X135264553Y-110272390D01*
X135264553Y-110272390D02*
X135216934Y-110224771D01*
X135216934Y-110224771D02*
X135121696Y-110177152D01*
X135121696Y-110177152D02*
X134931220Y-110177152D01*
X134931220Y-110177152D02*
X134835982Y-110224771D01*
X134502648Y-111224771D02*
X134455029Y-111177152D01*
X134455029Y-111177152D02*
X134359791Y-111034295D01*
X134359791Y-111034295D02*
X134312172Y-110939057D01*
X134312172Y-110939057D02*
X134264553Y-110796200D01*
X134264553Y-110796200D02*
X134216934Y-110558104D01*
X134216934Y-110558104D02*
X134216934Y-110367628D01*
X134216934Y-110367628D02*
X134264553Y-110129533D01*
X134264553Y-110129533D02*
X134312172Y-109986676D01*
X134312172Y-109986676D02*
X134359791Y-109891438D01*
X134359791Y-109891438D02*
X134455029Y-109748580D01*
X134455029Y-109748580D02*
X134502648Y-109700961D01*
X133026457Y-109939057D02*
X132978838Y-109891438D01*
X132978838Y-109891438D02*
X132883600Y-109843819D01*
X132883600Y-109843819D02*
X132645505Y-109843819D01*
X132645505Y-109843819D02*
X132550267Y-109891438D01*
X132550267Y-109891438D02*
X132502648Y-109939057D01*
X132502648Y-109939057D02*
X132455029Y-110034295D01*
X132455029Y-110034295D02*
X132455029Y-110129533D01*
X132455029Y-110129533D02*
X132502648Y-110272390D01*
X132502648Y-110272390D02*
X133074076Y-110843819D01*
X133074076Y-110843819D02*
X132455029Y-110843819D01*
X131835981Y-109843819D02*
X131740743Y-109843819D01*
X131740743Y-109843819D02*
X131645505Y-109891438D01*
X131645505Y-109891438D02*
X131597886Y-109939057D01*
X131597886Y-109939057D02*
X131550267Y-110034295D01*
X131550267Y-110034295D02*
X131502648Y-110224771D01*
X131502648Y-110224771D02*
X131502648Y-110462866D01*
X131502648Y-110462866D02*
X131550267Y-110653342D01*
X131550267Y-110653342D02*
X131597886Y-110748580D01*
X131597886Y-110748580D02*
X131645505Y-110796200D01*
X131645505Y-110796200D02*
X131740743Y-110843819D01*
X131740743Y-110843819D02*
X131835981Y-110843819D01*
X131835981Y-110843819D02*
X131931219Y-110796200D01*
X131931219Y-110796200D02*
X131978838Y-110748580D01*
X131978838Y-110748580D02*
X132026457Y-110653342D01*
X132026457Y-110653342D02*
X132074076Y-110462866D01*
X132074076Y-110462866D02*
X132074076Y-110224771D01*
X132074076Y-110224771D02*
X132026457Y-110034295D01*
X132026457Y-110034295D02*
X131978838Y-109939057D01*
X131978838Y-109939057D02*
X131931219Y-109891438D01*
X131931219Y-109891438D02*
X131835981Y-109843819D01*
X131121695Y-109939057D02*
X131074076Y-109891438D01*
X131074076Y-109891438D02*
X130978838Y-109843819D01*
X130978838Y-109843819D02*
X130740743Y-109843819D01*
X130740743Y-109843819D02*
X130645505Y-109891438D01*
X130645505Y-109891438D02*
X130597886Y-109939057D01*
X130597886Y-109939057D02*
X130550267Y-110034295D01*
X130550267Y-110034295D02*
X130550267Y-110129533D01*
X130550267Y-110129533D02*
X130597886Y-110272390D01*
X130597886Y-110272390D02*
X131169314Y-110843819D01*
X131169314Y-110843819D02*
X130550267Y-110843819D01*
X129597886Y-110843819D02*
X130169314Y-110843819D01*
X129883600Y-110843819D02*
X129883600Y-109843819D01*
X129883600Y-109843819D02*
X129978838Y-109986676D01*
X129978838Y-109986676D02*
X130074076Y-110081914D01*
X130074076Y-110081914D02*
X130169314Y-110129533D01*
X128407409Y-110843819D02*
X128407409Y-109843819D01*
X128407409Y-109843819D02*
X128074076Y-110558104D01*
X128074076Y-110558104D02*
X127740743Y-109843819D01*
X127740743Y-109843819D02*
X127740743Y-110843819D01*
X127264552Y-110843819D02*
X127264552Y-110177152D01*
X127264552Y-109843819D02*
X127312171Y-109891438D01*
X127312171Y-109891438D02*
X127264552Y-109939057D01*
X127264552Y-109939057D02*
X127216933Y-109891438D01*
X127216933Y-109891438D02*
X127264552Y-109843819D01*
X127264552Y-109843819D02*
X127264552Y-109939057D01*
X126359791Y-110177152D02*
X126359791Y-110986676D01*
X126359791Y-110986676D02*
X126407410Y-111081914D01*
X126407410Y-111081914D02*
X126455029Y-111129533D01*
X126455029Y-111129533D02*
X126550267Y-111177152D01*
X126550267Y-111177152D02*
X126693124Y-111177152D01*
X126693124Y-111177152D02*
X126788362Y-111129533D01*
X126359791Y-110796200D02*
X126455029Y-110843819D01*
X126455029Y-110843819D02*
X126645505Y-110843819D01*
X126645505Y-110843819D02*
X126740743Y-110796200D01*
X126740743Y-110796200D02*
X126788362Y-110748580D01*
X126788362Y-110748580D02*
X126835981Y-110653342D01*
X126835981Y-110653342D02*
X126835981Y-110367628D01*
X126835981Y-110367628D02*
X126788362Y-110272390D01*
X126788362Y-110272390D02*
X126740743Y-110224771D01*
X126740743Y-110224771D02*
X126645505Y-110177152D01*
X126645505Y-110177152D02*
X126455029Y-110177152D01*
X126455029Y-110177152D02*
X126359791Y-110224771D01*
X125455029Y-110177152D02*
X125455029Y-110843819D01*
X125883600Y-110177152D02*
X125883600Y-110700961D01*
X125883600Y-110700961D02*
X125835981Y-110796200D01*
X125835981Y-110796200D02*
X125740743Y-110843819D01*
X125740743Y-110843819D02*
X125597886Y-110843819D01*
X125597886Y-110843819D02*
X125502648Y-110796200D01*
X125502648Y-110796200D02*
X125455029Y-110748580D01*
X124597886Y-110796200D02*
X124693124Y-110843819D01*
X124693124Y-110843819D02*
X124883600Y-110843819D01*
X124883600Y-110843819D02*
X124978838Y-110796200D01*
X124978838Y-110796200D02*
X125026457Y-110700961D01*
X125026457Y-110700961D02*
X125026457Y-110320009D01*
X125026457Y-110320009D02*
X124978838Y-110224771D01*
X124978838Y-110224771D02*
X124883600Y-110177152D01*
X124883600Y-110177152D02*
X124693124Y-110177152D01*
X124693124Y-110177152D02*
X124597886Y-110224771D01*
X124597886Y-110224771D02*
X124550267Y-110320009D01*
X124550267Y-110320009D02*
X124550267Y-110415247D01*
X124550267Y-110415247D02*
X125026457Y-110510485D01*
X123978838Y-110843819D02*
X124074076Y-110796200D01*
X124074076Y-110796200D02*
X124121695Y-110700961D01*
X124121695Y-110700961D02*
X124121695Y-109843819D01*
X122883599Y-110558104D02*
X122407409Y-110558104D01*
X122978837Y-110843819D02*
X122645504Y-109843819D01*
X122645504Y-109843819D02*
X122312171Y-110843819D01*
X121978837Y-110748580D02*
X121931218Y-110796200D01*
X121931218Y-110796200D02*
X121978837Y-110843819D01*
X121978837Y-110843819D02*
X122026456Y-110796200D01*
X122026456Y-110796200D02*
X121978837Y-110748580D01*
X121978837Y-110748580D02*
X121978837Y-110843819D01*
X120169314Y-110843819D02*
X120502647Y-110367628D01*
X120740742Y-110843819D02*
X120740742Y-109843819D01*
X120740742Y-109843819D02*
X120359790Y-109843819D01*
X120359790Y-109843819D02*
X120264552Y-109891438D01*
X120264552Y-109891438D02*
X120216933Y-109939057D01*
X120216933Y-109939057D02*
X120169314Y-110034295D01*
X120169314Y-110034295D02*
X120169314Y-110177152D01*
X120169314Y-110177152D02*
X120216933Y-110272390D01*
X120216933Y-110272390D02*
X120264552Y-110320009D01*
X120264552Y-110320009D02*
X120359790Y-110367628D01*
X120359790Y-110367628D02*
X120740742Y-110367628D01*
X119597885Y-110843819D02*
X119693123Y-110796200D01*
X119693123Y-110796200D02*
X119740742Y-110748580D01*
X119740742Y-110748580D02*
X119788361Y-110653342D01*
X119788361Y-110653342D02*
X119788361Y-110367628D01*
X119788361Y-110367628D02*
X119740742Y-110272390D01*
X119740742Y-110272390D02*
X119693123Y-110224771D01*
X119693123Y-110224771D02*
X119597885Y-110177152D01*
X119597885Y-110177152D02*
X119455028Y-110177152D01*
X119455028Y-110177152D02*
X119359790Y-110224771D01*
X119359790Y-110224771D02*
X119312171Y-110272390D01*
X119312171Y-110272390D02*
X119264552Y-110367628D01*
X119264552Y-110367628D02*
X119264552Y-110653342D01*
X119264552Y-110653342D02*
X119312171Y-110748580D01*
X119312171Y-110748580D02*
X119359790Y-110796200D01*
X119359790Y-110796200D02*
X119455028Y-110843819D01*
X119455028Y-110843819D02*
X119597885Y-110843819D01*
X118407409Y-110843819D02*
X118407409Y-109843819D01*
X118407409Y-110796200D02*
X118502647Y-110843819D01*
X118502647Y-110843819D02*
X118693123Y-110843819D01*
X118693123Y-110843819D02*
X118788361Y-110796200D01*
X118788361Y-110796200D02*
X118835980Y-110748580D01*
X118835980Y-110748580D02*
X118883599Y-110653342D01*
X118883599Y-110653342D02*
X118883599Y-110367628D01*
X118883599Y-110367628D02*
X118835980Y-110272390D01*
X118835980Y-110272390D02*
X118788361Y-110224771D01*
X118788361Y-110224771D02*
X118693123Y-110177152D01*
X118693123Y-110177152D02*
X118502647Y-110177152D01*
X118502647Y-110177152D02*
X118407409Y-110224771D01*
X117931218Y-110843819D02*
X117931218Y-110177152D01*
X117931218Y-110367628D02*
X117883599Y-110272390D01*
X117883599Y-110272390D02*
X117835980Y-110224771D01*
X117835980Y-110224771D02*
X117740742Y-110177152D01*
X117740742Y-110177152D02*
X117645504Y-110177152D01*
X117312170Y-110843819D02*
X117312170Y-110177152D01*
X117312170Y-109843819D02*
X117359789Y-109891438D01*
X117359789Y-109891438D02*
X117312170Y-109939057D01*
X117312170Y-109939057D02*
X117264551Y-109891438D01*
X117264551Y-109891438D02*
X117312170Y-109843819D01*
X117312170Y-109843819D02*
X117312170Y-109939057D01*
X116407409Y-110177152D02*
X116407409Y-110986676D01*
X116407409Y-110986676D02*
X116455028Y-111081914D01*
X116455028Y-111081914D02*
X116502647Y-111129533D01*
X116502647Y-111129533D02*
X116597885Y-111177152D01*
X116597885Y-111177152D02*
X116740742Y-111177152D01*
X116740742Y-111177152D02*
X116835980Y-111129533D01*
X116407409Y-110796200D02*
X116502647Y-110843819D01*
X116502647Y-110843819D02*
X116693123Y-110843819D01*
X116693123Y-110843819D02*
X116788361Y-110796200D01*
X116788361Y-110796200D02*
X116835980Y-110748580D01*
X116835980Y-110748580D02*
X116883599Y-110653342D01*
X116883599Y-110653342D02*
X116883599Y-110367628D01*
X116883599Y-110367628D02*
X116835980Y-110272390D01*
X116835980Y-110272390D02*
X116788361Y-110224771D01*
X116788361Y-110224771D02*
X116693123Y-110177152D01*
X116693123Y-110177152D02*
X116502647Y-110177152D01*
X116502647Y-110177152D02*
X116407409Y-110224771D01*
X115502647Y-110177152D02*
X115502647Y-110843819D01*
X115931218Y-110177152D02*
X115931218Y-110700961D01*
X115931218Y-110700961D02*
X115883599Y-110796200D01*
X115883599Y-110796200D02*
X115788361Y-110843819D01*
X115788361Y-110843819D02*
X115645504Y-110843819D01*
X115645504Y-110843819D02*
X115550266Y-110796200D01*
X115550266Y-110796200D02*
X115502647Y-110748580D01*
X114645504Y-110796200D02*
X114740742Y-110843819D01*
X114740742Y-110843819D02*
X114931218Y-110843819D01*
X114931218Y-110843819D02*
X115026456Y-110796200D01*
X115026456Y-110796200D02*
X115074075Y-110700961D01*
X115074075Y-110700961D02*
X115074075Y-110320009D01*
X115074075Y-110320009D02*
X115026456Y-110224771D01*
X115026456Y-110224771D02*
X114931218Y-110177152D01*
X114931218Y-110177152D02*
X114740742Y-110177152D01*
X114740742Y-110177152D02*
X114645504Y-110224771D01*
X114645504Y-110224771D02*
X114597885Y-110320009D01*
X114597885Y-110320009D02*
X114597885Y-110415247D01*
X114597885Y-110415247D02*
X115074075Y-110510485D01*
X114264551Y-110177152D02*
X113740742Y-110177152D01*
X113740742Y-110177152D02*
X114264551Y-110843819D01*
X114264551Y-110843819D02*
X113740742Y-110843819D01*
X113359789Y-110462866D02*
X112597885Y-110462866D01*
X111835980Y-109843819D02*
X111835980Y-110558104D01*
X111835980Y-110558104D02*
X111883599Y-110700961D01*
X111883599Y-110700961D02*
X111978837Y-110796200D01*
X111978837Y-110796200D02*
X112121694Y-110843819D01*
X112121694Y-110843819D02*
X112216932Y-110843819D01*
X111216932Y-110843819D02*
X111312170Y-110796200D01*
X111312170Y-110796200D02*
X111359789Y-110748580D01*
X111359789Y-110748580D02*
X111407408Y-110653342D01*
X111407408Y-110653342D02*
X111407408Y-110367628D01*
X111407408Y-110367628D02*
X111359789Y-110272390D01*
X111359789Y-110272390D02*
X111312170Y-110224771D01*
X111312170Y-110224771D02*
X111216932Y-110177152D01*
X111216932Y-110177152D02*
X111074075Y-110177152D01*
X111074075Y-110177152D02*
X110978837Y-110224771D01*
X110978837Y-110224771D02*
X110931218Y-110272390D01*
X110931218Y-110272390D02*
X110883599Y-110367628D01*
X110883599Y-110367628D02*
X110883599Y-110653342D01*
X110883599Y-110653342D02*
X110931218Y-110748580D01*
X110931218Y-110748580D02*
X110978837Y-110796200D01*
X110978837Y-110796200D02*
X111074075Y-110843819D01*
X111074075Y-110843819D02*
X111216932Y-110843819D01*
X111026456Y-109796200D02*
X111169313Y-109939057D01*
X110026456Y-110843819D02*
X110026456Y-109843819D01*
X110026456Y-110796200D02*
X110121694Y-110843819D01*
X110121694Y-110843819D02*
X110312170Y-110843819D01*
X110312170Y-110843819D02*
X110407408Y-110796200D01*
X110407408Y-110796200D02*
X110455027Y-110748580D01*
X110455027Y-110748580D02*
X110502646Y-110653342D01*
X110502646Y-110653342D02*
X110502646Y-110367628D01*
X110502646Y-110367628D02*
X110455027Y-110272390D01*
X110455027Y-110272390D02*
X110407408Y-110224771D01*
X110407408Y-110224771D02*
X110312170Y-110177152D01*
X110312170Y-110177152D02*
X110121694Y-110177152D01*
X110121694Y-110177152D02*
X110026456Y-110224771D01*
X109121694Y-110843819D02*
X109121694Y-110320009D01*
X109121694Y-110320009D02*
X109169313Y-110224771D01*
X109169313Y-110224771D02*
X109264551Y-110177152D01*
X109264551Y-110177152D02*
X109455027Y-110177152D01*
X109455027Y-110177152D02*
X109550265Y-110224771D01*
X109121694Y-110796200D02*
X109216932Y-110843819D01*
X109216932Y-110843819D02*
X109455027Y-110843819D01*
X109455027Y-110843819D02*
X109550265Y-110796200D01*
X109550265Y-110796200D02*
X109597884Y-110700961D01*
X109597884Y-110700961D02*
X109597884Y-110605723D01*
X109597884Y-110605723D02*
X109550265Y-110510485D01*
X109550265Y-110510485D02*
X109455027Y-110462866D01*
X109455027Y-110462866D02*
X109216932Y-110462866D01*
X109216932Y-110462866D02*
X109121694Y-110415247D01*
X108645503Y-110843819D02*
X108645503Y-110177152D01*
X108645503Y-110367628D02*
X108597884Y-110272390D01*
X108597884Y-110272390D02*
X108550265Y-110224771D01*
X108550265Y-110224771D02*
X108455027Y-110177152D01*
X108455027Y-110177152D02*
X108359789Y-110177152D01*
D11*
X116123489Y-138724828D02*
X116123489Y-137224828D01*
X116123489Y-137224828D02*
X115766346Y-137224828D01*
X115766346Y-137224828D02*
X115552060Y-137296257D01*
X115552060Y-137296257D02*
X115409203Y-137439114D01*
X115409203Y-137439114D02*
X115337774Y-137581971D01*
X115337774Y-137581971D02*
X115266346Y-137867685D01*
X115266346Y-137867685D02*
X115266346Y-138081971D01*
X115266346Y-138081971D02*
X115337774Y-138367685D01*
X115337774Y-138367685D02*
X115409203Y-138510542D01*
X115409203Y-138510542D02*
X115552060Y-138653400D01*
X115552060Y-138653400D02*
X115766346Y-138724828D01*
X115766346Y-138724828D02*
X116123489Y-138724828D01*
X114623489Y-138724828D02*
X114623489Y-137724828D01*
X114623489Y-137224828D02*
X114694917Y-137296257D01*
X114694917Y-137296257D02*
X114623489Y-137367685D01*
X114623489Y-137367685D02*
X114552060Y-137296257D01*
X114552060Y-137296257D02*
X114623489Y-137224828D01*
X114623489Y-137224828D02*
X114623489Y-137367685D01*
X114052060Y-137724828D02*
X113694917Y-138724828D01*
X113694917Y-138724828D02*
X113337774Y-137724828D01*
X112980631Y-137224828D02*
X112123489Y-137224828D01*
X112552060Y-138724828D02*
X112552060Y-137224828D01*
X111623489Y-138724828D02*
X111623489Y-137724828D01*
X111623489Y-137224828D02*
X111694917Y-137296257D01*
X111694917Y-137296257D02*
X111623489Y-137367685D01*
X111623489Y-137367685D02*
X111552060Y-137296257D01*
X111552060Y-137296257D02*
X111623489Y-137224828D01*
X111623489Y-137224828D02*
X111623489Y-137367685D01*
X110337774Y-138653400D02*
X110480631Y-138724828D01*
X110480631Y-138724828D02*
X110766346Y-138724828D01*
X110766346Y-138724828D02*
X110909203Y-138653400D01*
X110909203Y-138653400D02*
X110980631Y-138510542D01*
X110980631Y-138510542D02*
X110980631Y-137939114D01*
X110980631Y-137939114D02*
X110909203Y-137796257D01*
X110909203Y-137796257D02*
X110766346Y-137724828D01*
X110766346Y-137724828D02*
X110480631Y-137724828D01*
X110480631Y-137724828D02*
X110337774Y-137796257D01*
X110337774Y-137796257D02*
X110266346Y-137939114D01*
X110266346Y-137939114D02*
X110266346Y-138081971D01*
X110266346Y-138081971D02*
X110980631Y-138224828D01*
X109694917Y-138653400D02*
X109552060Y-138724828D01*
X109552060Y-138724828D02*
X109266346Y-138724828D01*
X109266346Y-138724828D02*
X109123489Y-138653400D01*
X109123489Y-138653400D02*
X109052060Y-138510542D01*
X109052060Y-138510542D02*
X109052060Y-138439114D01*
X109052060Y-138439114D02*
X109123489Y-138296257D01*
X109123489Y-138296257D02*
X109266346Y-138224828D01*
X109266346Y-138224828D02*
X109480632Y-138224828D01*
X109480632Y-138224828D02*
X109623489Y-138153400D01*
X109623489Y-138153400D02*
X109694917Y-138010542D01*
X109694917Y-138010542D02*
X109694917Y-137939114D01*
X109694917Y-137939114D02*
X109623489Y-137796257D01*
X109623489Y-137796257D02*
X109480632Y-137724828D01*
X109480632Y-137724828D02*
X109266346Y-137724828D01*
X109266346Y-137724828D02*
X109123489Y-137796257D01*
X107766346Y-137724828D02*
X107766346Y-138724828D01*
X108409203Y-137724828D02*
X108409203Y-138510542D01*
X108409203Y-138510542D02*
X108337774Y-138653400D01*
X108337774Y-138653400D02*
X108194917Y-138724828D01*
X108194917Y-138724828D02*
X107980631Y-138724828D01*
X107980631Y-138724828D02*
X107837774Y-138653400D01*
X107837774Y-138653400D02*
X107766346Y-138581971D01*
X107123488Y-138653400D02*
X106980631Y-138724828D01*
X106980631Y-138724828D02*
X106694917Y-138724828D01*
X106694917Y-138724828D02*
X106552060Y-138653400D01*
X106552060Y-138653400D02*
X106480631Y-138510542D01*
X106480631Y-138510542D02*
X106480631Y-138439114D01*
X106480631Y-138439114D02*
X106552060Y-138296257D01*
X106552060Y-138296257D02*
X106694917Y-138224828D01*
X106694917Y-138224828D02*
X106909203Y-138224828D01*
X106909203Y-138224828D02*
X107052060Y-138153400D01*
X107052060Y-138153400D02*
X107123488Y-138010542D01*
X107123488Y-138010542D02*
X107123488Y-137939114D01*
X107123488Y-137939114D02*
X107052060Y-137796257D01*
X107052060Y-137796257D02*
X106909203Y-137724828D01*
X106909203Y-137724828D02*
X106694917Y-137724828D01*
X106694917Y-137724828D02*
X106552060Y-137796257D01*
X104266345Y-139296257D02*
X104337774Y-139224828D01*
X104337774Y-139224828D02*
X104480631Y-139010542D01*
X104480631Y-139010542D02*
X104552060Y-138867685D01*
X104552060Y-138867685D02*
X104623488Y-138653400D01*
X104623488Y-138653400D02*
X104694917Y-138296257D01*
X104694917Y-138296257D02*
X104694917Y-138010542D01*
X104694917Y-138010542D02*
X104623488Y-137653400D01*
X104623488Y-137653400D02*
X104552060Y-137439114D01*
X104552060Y-137439114D02*
X104480631Y-137296257D01*
X104480631Y-137296257D02*
X104337774Y-137081971D01*
X104337774Y-137081971D02*
X104266345Y-137010542D01*
X102837774Y-138724828D02*
X103337774Y-138010542D01*
X103694917Y-138724828D02*
X103694917Y-137224828D01*
X103694917Y-137224828D02*
X103123488Y-137224828D01*
X103123488Y-137224828D02*
X102980631Y-137296257D01*
X102980631Y-137296257D02*
X102909202Y-137367685D01*
X102909202Y-137367685D02*
X102837774Y-137510542D01*
X102837774Y-137510542D02*
X102837774Y-137724828D01*
X102837774Y-137724828D02*
X102909202Y-137867685D01*
X102909202Y-137867685D02*
X102980631Y-137939114D01*
X102980631Y-137939114D02*
X103123488Y-138010542D01*
X103123488Y-138010542D02*
X103694917Y-138010542D01*
X102266345Y-137367685D02*
X102194917Y-137296257D01*
X102194917Y-137296257D02*
X102052060Y-137224828D01*
X102052060Y-137224828D02*
X101694917Y-137224828D01*
X101694917Y-137224828D02*
X101552060Y-137296257D01*
X101552060Y-137296257D02*
X101480631Y-137367685D01*
X101480631Y-137367685D02*
X101409202Y-137510542D01*
X101409202Y-137510542D02*
X101409202Y-137653400D01*
X101409202Y-137653400D02*
X101480631Y-137867685D01*
X101480631Y-137867685D02*
X102337774Y-138724828D01*
X102337774Y-138724828D02*
X101409202Y-138724828D01*
X100909203Y-139296257D02*
X100837774Y-139224828D01*
X100837774Y-139224828D02*
X100694917Y-139010542D01*
X100694917Y-139010542D02*
X100623489Y-138867685D01*
X100623489Y-138867685D02*
X100552060Y-138653400D01*
X100552060Y-138653400D02*
X100480631Y-138296257D01*
X100480631Y-138296257D02*
X100480631Y-138010542D01*
X100480631Y-138010542D02*
X100552060Y-137653400D01*
X100552060Y-137653400D02*
X100623489Y-137439114D01*
X100623489Y-137439114D02*
X100694917Y-137296257D01*
X100694917Y-137296257D02*
X100837774Y-137081971D01*
X100837774Y-137081971D02*
X100909203Y-137010542D01*
X98694917Y-138296257D02*
X97980632Y-138296257D01*
X98837774Y-138724828D02*
X98337774Y-137224828D01*
X98337774Y-137224828D02*
X97837774Y-138724828D01*
X96694918Y-138653400D02*
X96837775Y-138724828D01*
X96837775Y-138724828D02*
X97123489Y-138724828D01*
X97123489Y-138724828D02*
X97266346Y-138653400D01*
X97266346Y-138653400D02*
X97337775Y-138581971D01*
X97337775Y-138581971D02*
X97409203Y-138439114D01*
X97409203Y-138439114D02*
X97409203Y-138010542D01*
X97409203Y-138010542D02*
X97337775Y-137867685D01*
X97337775Y-137867685D02*
X97266346Y-137796257D01*
X97266346Y-137796257D02*
X97123489Y-137724828D01*
X97123489Y-137724828D02*
X96837775Y-137724828D01*
X96837775Y-137724828D02*
X96694918Y-137796257D01*
X95480632Y-138653400D02*
X95623489Y-138724828D01*
X95623489Y-138724828D02*
X95909204Y-138724828D01*
X95909204Y-138724828D02*
X96052061Y-138653400D01*
X96052061Y-138653400D02*
X96123489Y-138510542D01*
X96123489Y-138510542D02*
X96123489Y-137939114D01*
X96123489Y-137939114D02*
X96052061Y-137796257D01*
X96052061Y-137796257D02*
X95909204Y-137724828D01*
X95909204Y-137724828D02*
X95623489Y-137724828D01*
X95623489Y-137724828D02*
X95480632Y-137796257D01*
X95480632Y-137796257D02*
X95409204Y-137939114D01*
X95409204Y-137939114D02*
X95409204Y-138081971D01*
X95409204Y-138081971D02*
X96123489Y-138224828D01*
X94766347Y-138724828D02*
X94766347Y-137724828D01*
X94766347Y-138010542D02*
X94694918Y-137867685D01*
X94694918Y-137867685D02*
X94623490Y-137796257D01*
X94623490Y-137796257D02*
X94480632Y-137724828D01*
X94480632Y-137724828D02*
X94337775Y-137724828D01*
X91837776Y-138724828D02*
X92337776Y-138010542D01*
X92694919Y-138724828D02*
X92694919Y-137224828D01*
X92694919Y-137224828D02*
X92123490Y-137224828D01*
X92123490Y-137224828D02*
X91980633Y-137296257D01*
X91980633Y-137296257D02*
X91909204Y-137367685D01*
X91909204Y-137367685D02*
X91837776Y-137510542D01*
X91837776Y-137510542D02*
X91837776Y-137724828D01*
X91837776Y-137724828D02*
X91909204Y-137867685D01*
X91909204Y-137867685D02*
X91980633Y-137939114D01*
X91980633Y-137939114D02*
X92123490Y-138010542D01*
X92123490Y-138010542D02*
X92694919Y-138010542D01*
X91194919Y-138581971D02*
X91123490Y-138653400D01*
X91123490Y-138653400D02*
X91194919Y-138724828D01*
X91194919Y-138724828D02*
X91266347Y-138653400D01*
X91266347Y-138653400D02*
X91194919Y-138581971D01*
X91194919Y-138581971D02*
X91194919Y-138724828D01*
X90194918Y-137224828D02*
X90052061Y-137224828D01*
X90052061Y-137224828D02*
X89909204Y-137296257D01*
X89909204Y-137296257D02*
X89837776Y-137367685D01*
X89837776Y-137367685D02*
X89766347Y-137510542D01*
X89766347Y-137510542D02*
X89694918Y-137796257D01*
X89694918Y-137796257D02*
X89694918Y-138153400D01*
X89694918Y-138153400D02*
X89766347Y-138439114D01*
X89766347Y-138439114D02*
X89837776Y-138581971D01*
X89837776Y-138581971D02*
X89909204Y-138653400D01*
X89909204Y-138653400D02*
X90052061Y-138724828D01*
X90052061Y-138724828D02*
X90194918Y-138724828D01*
X90194918Y-138724828D02*
X90337776Y-138653400D01*
X90337776Y-138653400D02*
X90409204Y-138581971D01*
X90409204Y-138581971D02*
X90480633Y-138439114D01*
X90480633Y-138439114D02*
X90552061Y-138153400D01*
X90552061Y-138153400D02*
X90552061Y-137796257D01*
X90552061Y-137796257D02*
X90480633Y-137510542D01*
X90480633Y-137510542D02*
X90409204Y-137367685D01*
X90409204Y-137367685D02*
X90337776Y-137296257D01*
X90337776Y-137296257D02*
X90194918Y-137224828D01*
X89052062Y-138581971D02*
X88980633Y-138653400D01*
X88980633Y-138653400D02*
X89052062Y-138724828D01*
X89052062Y-138724828D02*
X89123490Y-138653400D01*
X89123490Y-138653400D02*
X89052062Y-138581971D01*
X89052062Y-138581971D02*
X89052062Y-138724828D01*
X87552061Y-138724828D02*
X88409204Y-138724828D01*
X87980633Y-138724828D02*
X87980633Y-137224828D01*
X87980633Y-137224828D02*
X88123490Y-137439114D01*
X88123490Y-137439114D02*
X88266347Y-137581971D01*
X88266347Y-137581971D02*
X88409204Y-137653400D01*
D10*
X99808104Y-89142219D02*
X99808104Y-89951742D01*
X99808104Y-89951742D02*
X99760485Y-90046980D01*
X99760485Y-90046980D02*
X99712866Y-90094600D01*
X99712866Y-90094600D02*
X99617628Y-90142219D01*
X99617628Y-90142219D02*
X99427152Y-90142219D01*
X99427152Y-90142219D02*
X99331914Y-90094600D01*
X99331914Y-90094600D02*
X99284295Y-90046980D01*
X99284295Y-90046980D02*
X99236676Y-89951742D01*
X99236676Y-89951742D02*
X99236676Y-89142219D01*
X98331914Y-89475552D02*
X98331914Y-90142219D01*
X98570009Y-89094600D02*
X98808104Y-89808885D01*
X98808104Y-89808885D02*
X98189057Y-89808885D01*
D11*
X114681170Y-96236364D02*
X114824028Y-96164935D01*
X114824028Y-96164935D02*
X115038313Y-96164935D01*
X115038313Y-96164935D02*
X115252599Y-96236364D01*
X115252599Y-96236364D02*
X115395456Y-96379221D01*
X115395456Y-96379221D02*
X115466885Y-96522078D01*
X115466885Y-96522078D02*
X115538313Y-96807792D01*
X115538313Y-96807792D02*
X115538313Y-97022078D01*
X115538313Y-97022078D02*
X115466885Y-97307792D01*
X115466885Y-97307792D02*
X115395456Y-97450649D01*
X115395456Y-97450649D02*
X115252599Y-97593507D01*
X115252599Y-97593507D02*
X115038313Y-97664935D01*
X115038313Y-97664935D02*
X114895456Y-97664935D01*
X114895456Y-97664935D02*
X114681170Y-97593507D01*
X114681170Y-97593507D02*
X114609742Y-97522078D01*
X114609742Y-97522078D02*
X114609742Y-97022078D01*
X114609742Y-97022078D02*
X114895456Y-97022078D01*
X113752599Y-96164935D02*
X113752599Y-96522078D01*
X114109742Y-96379221D02*
X113752599Y-96522078D01*
X113752599Y-96522078D02*
X113395456Y-96379221D01*
X113966885Y-96807792D02*
X113752599Y-96522078D01*
X113752599Y-96522078D02*
X113538313Y-96807792D01*
X112609742Y-96164935D02*
X112609742Y-96522078D01*
X112966885Y-96379221D02*
X112609742Y-96522078D01*
X112609742Y-96522078D02*
X112252599Y-96379221D01*
X112824028Y-96807792D02*
X112609742Y-96522078D01*
X112609742Y-96522078D02*
X112395456Y-96807792D01*
X111466885Y-96164935D02*
X111466885Y-96522078D01*
X111824028Y-96379221D02*
X111466885Y-96522078D01*
X111466885Y-96522078D02*
X111109742Y-96379221D01*
X111681171Y-96807792D02*
X111466885Y-96522078D01*
X111466885Y-96522078D02*
X111252599Y-96807792D01*
D12*
X111708144Y-88725678D02*
X112415251Y-88018572D01*
X112415251Y-88018572D02*
X112246892Y-87850213D01*
X112246892Y-87850213D02*
X112112205Y-87782869D01*
X112112205Y-87782869D02*
X111977518Y-87782869D01*
X111977518Y-87782869D02*
X111876503Y-87816541D01*
X111876503Y-87816541D02*
X111708144Y-87917556D01*
X111708144Y-87917556D02*
X111607129Y-88018572D01*
X111607129Y-88018572D02*
X111506114Y-88186930D01*
X111506114Y-88186930D02*
X111472442Y-88287946D01*
X111472442Y-88287946D02*
X111472442Y-88422633D01*
X111472442Y-88422633D02*
X111539785Y-88557320D01*
X111539785Y-88557320D02*
X111708144Y-88725678D01*
X110630648Y-87648182D02*
X111034709Y-88052243D01*
X110832679Y-87850213D02*
X111539785Y-87143106D01*
X111539785Y-87143106D02*
X111506114Y-87311465D01*
X111506114Y-87311465D02*
X111506114Y-87446152D01*
X111506114Y-87446152D02*
X111539785Y-87547167D01*
%TO.C,U4*%
D13*
X90723000Y-77669000D02*
X90723000Y-85289000D01*
X90723000Y-101289000D02*
X90723000Y-101909000D01*
X90723000Y-101909000D02*
X92843000Y-101909000D01*
X104843000Y-101909000D02*
X106963000Y-101909000D01*
X106963000Y-77669000D02*
X90723000Y-77669000D01*
X106963000Y-85289000D02*
X106963000Y-77669000D01*
X106963000Y-85289000D02*
X107573000Y-85289000D01*
X106963000Y-101909000D02*
X106963000Y-101289000D01*
D14*
%TO.C,G\u002A\u002A\u002A*%
G36*
X111829110Y-96280979D02*
G01*
X111893560Y-96346072D01*
X111922231Y-96508021D01*
X111928757Y-96807734D01*
X111925469Y-97045412D01*
X111903771Y-97238762D01*
X111849788Y-97324773D01*
X111749884Y-97344353D01*
X111670658Y-97334488D01*
X111606208Y-97269396D01*
X111577537Y-97107447D01*
X111571011Y-96807734D01*
X111574299Y-96570055D01*
X111595997Y-96376705D01*
X111649980Y-96290694D01*
X111749884Y-96271114D01*
X111829110Y-96280979D01*
G37*
G36*
X113746887Y-94419140D02*
G01*
X113896363Y-94482382D01*
X114011995Y-94511779D01*
X114075236Y-94661255D01*
X114045839Y-94776887D01*
X113896363Y-94840128D01*
X113793118Y-94860382D01*
X113732490Y-94963824D01*
X113717490Y-95197875D01*
X113717490Y-95555621D01*
X113180870Y-95555621D01*
X112644250Y-95555621D01*
X112644250Y-95197875D01*
X112634123Y-94991384D01*
X112582402Y-94870128D01*
X112465377Y-94840128D01*
X112349745Y-94810731D01*
X112286504Y-94661255D01*
X112257107Y-94545623D01*
X112107630Y-94482382D01*
X112028404Y-94472516D01*
X111963954Y-94407424D01*
X111945558Y-94303508D01*
X113001997Y-94303508D01*
X113031394Y-94419140D01*
X113180870Y-94482382D01*
X113296502Y-94452984D01*
X113359743Y-94303508D01*
X113330346Y-94187876D01*
X113180870Y-94124635D01*
X113065238Y-94154032D01*
X113001997Y-94303508D01*
X111945558Y-94303508D01*
X111935284Y-94245475D01*
X111928757Y-93945762D01*
X111932046Y-93708083D01*
X111953743Y-93514733D01*
X112007726Y-93428722D01*
X112107630Y-93409142D01*
X112223262Y-93379745D01*
X112286504Y-93230269D01*
X112289137Y-93183108D01*
X112325058Y-93111991D01*
X112431855Y-93072330D01*
X112645507Y-93055130D01*
X113001997Y-93051396D01*
X113190642Y-93052054D01*
X113475109Y-93061034D01*
X113633752Y-93087733D01*
X113702552Y-93141147D01*
X113717490Y-93230269D01*
X113746887Y-93345901D01*
X113896363Y-93409142D01*
X113999608Y-93429397D01*
X114060236Y-93532838D01*
X114075236Y-93766889D01*
X114065109Y-93973379D01*
X114013388Y-94094635D01*
X113896363Y-94124635D01*
X113780731Y-94154032D01*
X113717490Y-94303508D01*
X113746887Y-94419140D01*
G37*
G36*
X111802544Y-100210139D02*
G01*
X111861155Y-100244149D01*
X111898142Y-100338454D01*
X111918444Y-100522697D01*
X111927002Y-100826520D01*
X111928757Y-101279565D01*
X111928122Y-101595527D01*
X111922453Y-101947192D01*
X111906736Y-102169110D01*
X111876029Y-102290924D01*
X111825391Y-102342274D01*
X111749884Y-102352804D01*
X111736589Y-102352952D01*
X111669633Y-102366422D01*
X111623657Y-102421317D01*
X111594734Y-102545125D01*
X111578936Y-102765335D01*
X111572338Y-103109436D01*
X111571011Y-103604917D01*
X111571032Y-103697982D01*
X111572956Y-104166672D01*
X111580798Y-104488504D01*
X111598485Y-104690967D01*
X111629944Y-104801550D01*
X111679101Y-104847741D01*
X111749884Y-104857029D01*
X111865516Y-104886427D01*
X111928757Y-105035903D01*
X111899360Y-105151535D01*
X111749884Y-105214776D01*
X111634252Y-105244173D01*
X111571011Y-105393649D01*
X111561145Y-105472875D01*
X111496053Y-105537325D01*
X111334104Y-105565996D01*
X111034391Y-105572522D01*
X110796712Y-105569234D01*
X110603363Y-105547537D01*
X110517351Y-105493553D01*
X110497771Y-105393649D01*
X110527168Y-105278017D01*
X110676644Y-105214776D01*
X110792276Y-105185379D01*
X110855518Y-105035903D01*
X110884915Y-104920271D01*
X111034391Y-104857029D01*
X111047686Y-104856882D01*
X111114642Y-104843412D01*
X111160618Y-104788517D01*
X111189541Y-104664709D01*
X111205339Y-104444498D01*
X111211937Y-104100397D01*
X111213264Y-103604917D01*
X111213285Y-103511851D01*
X111215210Y-103043162D01*
X111223052Y-102721330D01*
X111240739Y-102518867D01*
X111272197Y-102408284D01*
X111321355Y-102362093D01*
X111392137Y-102352804D01*
X111444798Y-102348990D01*
X111503409Y-102314981D01*
X111540395Y-102220675D01*
X111560697Y-102036432D01*
X111569256Y-101732609D01*
X111571011Y-101279565D01*
X111571646Y-100963602D01*
X111577315Y-100611937D01*
X111593032Y-100390019D01*
X111623739Y-100268206D01*
X111674377Y-100216855D01*
X111749884Y-100206325D01*
X111802544Y-100210139D01*
G37*
G36*
X115442981Y-100951215D02*
G01*
X115506222Y-101100691D01*
X115535619Y-101216323D01*
X115685095Y-101279565D01*
X115800727Y-101308962D01*
X115863968Y-101458438D01*
X115893366Y-101574070D01*
X116042842Y-101637311D01*
X116146087Y-101657566D01*
X116206715Y-101761007D01*
X116221715Y-101995058D01*
X116211588Y-102201548D01*
X116159867Y-102322804D01*
X116042842Y-102352804D01*
X115939596Y-102373058D01*
X115878969Y-102476500D01*
X115863968Y-102710551D01*
X115853841Y-102917041D01*
X115802121Y-103038297D01*
X115685095Y-103068297D01*
X115581850Y-103088551D01*
X115521222Y-103191993D01*
X115506222Y-103426044D01*
X115496095Y-103632534D01*
X115444374Y-103753790D01*
X115327349Y-103783790D01*
X115211717Y-103813187D01*
X115148475Y-103962663D01*
X115168730Y-104065908D01*
X115272171Y-104126536D01*
X115506222Y-104141536D01*
X115712712Y-104151664D01*
X115833968Y-104203384D01*
X115863968Y-104320410D01*
X115893366Y-104436042D01*
X116042842Y-104499283D01*
X116158474Y-104528680D01*
X116221715Y-104678156D01*
X116211850Y-104757382D01*
X116146757Y-104821832D01*
X115984808Y-104850503D01*
X115685095Y-104857029D01*
X115447416Y-104853741D01*
X115254067Y-104832044D01*
X115168056Y-104778061D01*
X115148475Y-104678156D01*
X115119078Y-104562524D01*
X114969602Y-104499283D01*
X114866357Y-104479029D01*
X114805729Y-104375587D01*
X114790729Y-104141536D01*
X114800856Y-103935046D01*
X114852577Y-103813790D01*
X114969602Y-103783790D01*
X115072847Y-103763536D01*
X115133475Y-103660094D01*
X115148475Y-103426044D01*
X115158603Y-103219553D01*
X115210323Y-103098297D01*
X115327349Y-103068297D01*
X115430594Y-103048043D01*
X115491222Y-102944601D01*
X115506222Y-102710551D01*
X115516349Y-102504060D01*
X115568070Y-102382804D01*
X115685095Y-102352804D01*
X115788340Y-102332550D01*
X115848968Y-102229108D01*
X115863968Y-101995058D01*
X115853841Y-101788567D01*
X115802121Y-101667311D01*
X115685095Y-101637311D01*
X115569463Y-101607914D01*
X115506222Y-101458438D01*
X115476825Y-101342806D01*
X115327349Y-101279565D01*
X115211717Y-101250168D01*
X115148475Y-101100691D01*
X115177873Y-100985059D01*
X115327349Y-100921818D01*
X115442981Y-100951215D01*
G37*
G36*
X115145379Y-98319935D02*
G01*
X115132427Y-98567738D01*
X115103131Y-98704656D01*
X115051014Y-98763064D01*
X114969602Y-98775339D01*
X114866357Y-98795594D01*
X114805729Y-98899035D01*
X114790729Y-99133086D01*
X114780602Y-99339576D01*
X114728881Y-99460832D01*
X114611856Y-99490832D01*
X114496224Y-99520229D01*
X114432983Y-99669706D01*
X114412728Y-99772951D01*
X114309287Y-99833579D01*
X114075236Y-99848579D01*
X113868746Y-99838452D01*
X113747490Y-99786731D01*
X113717490Y-99669706D01*
X113688092Y-99554074D01*
X113538616Y-99490832D01*
X113435371Y-99470578D01*
X113374743Y-99367137D01*
X113359743Y-99133086D01*
X113349616Y-98926595D01*
X113297895Y-98805340D01*
X113180870Y-98775339D01*
X113171290Y-98775266D01*
X113093077Y-98759857D01*
X113043517Y-98695099D01*
X113016133Y-98548616D01*
X113004452Y-98288033D01*
X113004155Y-98238720D01*
X113359743Y-98238720D01*
X113389140Y-98354352D01*
X113538616Y-98417593D01*
X113654248Y-98388196D01*
X113717490Y-98238720D01*
X113737744Y-98135474D01*
X113841185Y-98074846D01*
X114075236Y-98059846D01*
X114281726Y-98069974D01*
X114402982Y-98121694D01*
X114432983Y-98238720D01*
X114462380Y-98354352D01*
X114611856Y-98417593D01*
X114727488Y-98388196D01*
X114790729Y-98238720D01*
X114761332Y-98123088D01*
X114611856Y-98059846D01*
X114496224Y-98030449D01*
X114432983Y-97880973D01*
X114412728Y-97777728D01*
X114309287Y-97717100D01*
X114075236Y-97702100D01*
X113868746Y-97712227D01*
X113747490Y-97763948D01*
X113717490Y-97880973D01*
X113688092Y-97996605D01*
X113538616Y-98059846D01*
X113422984Y-98089243D01*
X113359743Y-98238720D01*
X113004155Y-98238720D01*
X113001997Y-97880973D01*
X113002011Y-97833074D01*
X113005093Y-97442011D01*
X113018045Y-97194208D01*
X113047341Y-97057290D01*
X113099458Y-96998882D01*
X113180870Y-96986607D01*
X113296502Y-97016004D01*
X113359743Y-97165480D01*
X113362376Y-97212641D01*
X113398297Y-97283758D01*
X113505094Y-97323419D01*
X113718747Y-97340619D01*
X114075236Y-97344353D01*
X114263881Y-97343695D01*
X114548348Y-97334715D01*
X114706991Y-97308016D01*
X114775791Y-97254602D01*
X114790729Y-97165480D01*
X114820126Y-97049848D01*
X114969602Y-96986607D01*
X114979182Y-96986680D01*
X115057395Y-97002089D01*
X115106955Y-97066847D01*
X115134339Y-97213330D01*
X115146021Y-97473913D01*
X115148475Y-97880973D01*
X115148461Y-97928872D01*
X115146019Y-98238720D01*
X115145379Y-98319935D01*
G37*
G36*
X115506222Y-91620410D02*
G01*
X115516349Y-91826900D01*
X115568070Y-91948156D01*
X115685095Y-91978156D01*
X115800727Y-92007553D01*
X115863968Y-92157029D01*
X115893366Y-92272661D01*
X116042842Y-92335903D01*
X116158474Y-92365300D01*
X116221715Y-92514776D01*
X116251112Y-92630408D01*
X116400588Y-92693649D01*
X116516220Y-92723046D01*
X116579461Y-92872522D01*
X116608859Y-92988154D01*
X116758335Y-93051396D01*
X116873967Y-93080793D01*
X116937208Y-93230269D01*
X116907811Y-93345901D01*
X116758335Y-93409142D01*
X116642703Y-93438539D01*
X116579461Y-93588015D01*
X116550064Y-93703647D01*
X116400588Y-93766889D01*
X116284956Y-93796286D01*
X116221715Y-93945762D01*
X116192318Y-94061394D01*
X116042842Y-94124635D01*
X115927210Y-94154032D01*
X115863968Y-94303508D01*
X115834571Y-94419140D01*
X115685095Y-94482382D01*
X115569463Y-94511779D01*
X115506222Y-94661255D01*
X115476825Y-94776887D01*
X115327349Y-94840128D01*
X115211717Y-94869525D01*
X115148475Y-95019001D01*
X115128221Y-95122246D01*
X115024780Y-95182874D01*
X114790729Y-95197875D01*
X114432983Y-95197875D01*
X114432983Y-95555621D01*
X114422855Y-95762111D01*
X114371135Y-95883367D01*
X114254109Y-95913367D01*
X114150864Y-95893113D01*
X114090236Y-95789672D01*
X114075236Y-95555621D01*
X114085363Y-95349131D01*
X114137084Y-95227875D01*
X114254109Y-95197875D01*
X114357354Y-95177620D01*
X114417982Y-95074179D01*
X114432983Y-94840128D01*
X114443110Y-94633638D01*
X114494830Y-94512382D01*
X114611856Y-94482382D01*
X114727488Y-94511779D01*
X114790729Y-94661255D01*
X114820126Y-94776887D01*
X114969602Y-94840128D01*
X115085234Y-94810731D01*
X115148475Y-94661255D01*
X115177873Y-94545623D01*
X115327349Y-94482382D01*
X115442981Y-94452984D01*
X115506222Y-94303508D01*
X115535619Y-94187876D01*
X115685095Y-94124635D01*
X115800727Y-94095238D01*
X115863968Y-93945762D01*
X115893366Y-93830130D01*
X116042842Y-93766889D01*
X116158474Y-93737491D01*
X116221715Y-93588015D01*
X116251112Y-93472383D01*
X116400588Y-93409142D01*
X116516220Y-93379745D01*
X116579461Y-93230269D01*
X116550064Y-93114637D01*
X116400588Y-93051396D01*
X116284956Y-93021998D01*
X116221715Y-92872522D01*
X116192318Y-92756890D01*
X116042842Y-92693649D01*
X115927210Y-92664252D01*
X115863968Y-92514776D01*
X115834571Y-92399144D01*
X115685095Y-92335903D01*
X115569463Y-92306506D01*
X115506222Y-92157029D01*
X115485968Y-92053784D01*
X115382526Y-91993156D01*
X115148475Y-91978156D01*
X114941985Y-91968029D01*
X114820729Y-91916308D01*
X114790729Y-91799283D01*
X114761332Y-91683651D01*
X114611856Y-91620410D01*
X114496224Y-91649807D01*
X114432983Y-91799283D01*
X114403585Y-91914915D01*
X114254109Y-91978156D01*
X114138477Y-91948759D01*
X114075236Y-91799283D01*
X114104633Y-91683651D01*
X114254109Y-91620410D01*
X114369741Y-91591013D01*
X114432983Y-91441536D01*
X114790729Y-91441536D01*
X114820126Y-91557168D01*
X114969602Y-91620410D01*
X115085234Y-91591013D01*
X115148475Y-91441536D01*
X115119078Y-91325904D01*
X114969602Y-91262663D01*
X114853970Y-91292060D01*
X114790729Y-91441536D01*
X114432983Y-91441536D01*
X114403585Y-91325904D01*
X114254109Y-91262663D01*
X114138477Y-91233266D01*
X114075236Y-91083790D01*
X114045839Y-90968158D01*
X113896363Y-90904917D01*
X113780731Y-90875520D01*
X113717490Y-90726044D01*
X113688092Y-90610412D01*
X113538616Y-90547170D01*
X113422984Y-90517773D01*
X113359743Y-90368297D01*
X113330346Y-90252665D01*
X113180870Y-90189424D01*
X113065238Y-90160027D01*
X113001997Y-90010551D01*
X112972599Y-89894919D01*
X112823123Y-89831677D01*
X112707491Y-89802280D01*
X112644250Y-89652804D01*
X112614853Y-89537172D01*
X112465377Y-89473931D01*
X112362132Y-89453676D01*
X112301504Y-89350235D01*
X112286504Y-89116184D01*
X112286504Y-88758438D01*
X112644250Y-88758438D01*
X112850741Y-88768565D01*
X112971996Y-88820286D01*
X113001997Y-88937311D01*
X113031394Y-89052943D01*
X113180870Y-89116184D01*
X113296502Y-89145582D01*
X113359743Y-89295058D01*
X113389140Y-89410690D01*
X113538616Y-89473931D01*
X113654248Y-89503328D01*
X113717490Y-89652804D01*
X113746887Y-89768436D01*
X113896363Y-89831677D01*
X114011995Y-89861074D01*
X114075236Y-90010551D01*
X114104633Y-90126183D01*
X114254109Y-90189424D01*
X114369741Y-90218821D01*
X114432983Y-90368297D01*
X114462380Y-90483929D01*
X114611856Y-90547170D01*
X114727488Y-90576567D01*
X114790729Y-90726044D01*
X114820126Y-90841676D01*
X114969602Y-90904917D01*
X115085234Y-90875520D01*
X115148475Y-90726044D01*
X115177873Y-90610412D01*
X115327349Y-90547170D01*
X115442981Y-90576567D01*
X115506222Y-90726044D01*
X115476825Y-90841676D01*
X115327349Y-90904917D01*
X115211717Y-90934314D01*
X115148475Y-91083790D01*
X115177873Y-91199422D01*
X115327349Y-91262663D01*
X115430594Y-91282918D01*
X115491222Y-91386359D01*
X115494758Y-91441536D01*
X115506222Y-91620410D01*
G37*
G36*
X115863968Y-97523227D02*
G01*
X115863966Y-97569541D01*
X115862960Y-98130064D01*
X115858268Y-98537728D01*
X115847193Y-98816815D01*
X115827037Y-98991610D01*
X115795100Y-99086397D01*
X115748686Y-99125461D01*
X115685095Y-99133086D01*
X115581850Y-99153340D01*
X115521222Y-99256782D01*
X115506222Y-99490832D01*
X115496095Y-99697323D01*
X115444374Y-99818578D01*
X115327349Y-99848579D01*
X115211717Y-99877976D01*
X115148475Y-100027452D01*
X115119078Y-100143084D01*
X114969602Y-100206325D01*
X114853970Y-100235722D01*
X114790729Y-100385198D01*
X114761332Y-100500830D01*
X114611856Y-100564072D01*
X114496224Y-100593469D01*
X114432983Y-100742945D01*
X114412728Y-100846190D01*
X114309287Y-100906818D01*
X114075236Y-100921818D01*
X113868746Y-100911691D01*
X113747490Y-100859970D01*
X113717490Y-100742945D01*
X113688092Y-100627313D01*
X113538616Y-100564072D01*
X113422984Y-100534675D01*
X113359743Y-100385198D01*
X113330346Y-100269566D01*
X113180870Y-100206325D01*
X113065238Y-100176928D01*
X113001997Y-100027452D01*
X112972599Y-99911820D01*
X112823123Y-99848579D01*
X112707491Y-99877976D01*
X112644250Y-100027452D01*
X112614853Y-100143084D01*
X112465377Y-100206325D01*
X112349745Y-100176928D01*
X112286504Y-100027452D01*
X112266249Y-99924207D01*
X112162808Y-99863579D01*
X111928757Y-99848579D01*
X111722267Y-99838452D01*
X111601011Y-99786731D01*
X111571011Y-99669706D01*
X111541614Y-99554074D01*
X111392137Y-99490832D01*
X111276505Y-99461435D01*
X111213264Y-99311959D01*
X111242661Y-99196327D01*
X111392137Y-99133086D01*
X111507769Y-99103689D01*
X111571011Y-98954213D01*
X111541614Y-98838581D01*
X111392137Y-98775339D01*
X111276505Y-98745942D01*
X111213264Y-98596466D01*
X111242661Y-98480834D01*
X111392137Y-98417593D01*
X111507769Y-98446990D01*
X111571011Y-98596466D01*
X111600408Y-98712098D01*
X111749884Y-98775339D01*
X111853129Y-98795594D01*
X111913757Y-98899035D01*
X111928757Y-99133086D01*
X111938884Y-99339576D01*
X111990605Y-99460832D01*
X112107630Y-99490832D01*
X112223262Y-99520229D01*
X112286504Y-99669706D01*
X112315901Y-99785337D01*
X112465377Y-99848579D01*
X112568622Y-99828324D01*
X112629250Y-99724883D01*
X112644250Y-99490832D01*
X112634123Y-99284342D01*
X112582402Y-99163086D01*
X112465377Y-99133086D01*
X112386151Y-99123220D01*
X112321701Y-99058128D01*
X112293030Y-98896179D01*
X112286504Y-98596466D01*
X112286504Y-98059846D01*
X111213264Y-98059846D01*
X110140025Y-98059846D01*
X110140025Y-97523227D01*
X110143313Y-97285548D01*
X110165011Y-97092198D01*
X110218994Y-97006187D01*
X110318898Y-96986607D01*
X110434530Y-96957210D01*
X110497771Y-96807734D01*
X110527168Y-96692102D01*
X110676644Y-96628860D01*
X110779890Y-96608606D01*
X110840518Y-96505165D01*
X110855518Y-96271114D01*
X110865645Y-96064624D01*
X110917366Y-95943368D01*
X111034391Y-95913367D01*
X111150023Y-95883970D01*
X111213264Y-95734494D01*
X111183867Y-95618862D01*
X111034391Y-95555621D01*
X110918759Y-95526224D01*
X110855518Y-95376748D01*
X110884915Y-95261116D01*
X111034391Y-95197875D01*
X111150023Y-95168477D01*
X111213264Y-95019001D01*
X111242661Y-94903369D01*
X111392137Y-94840128D01*
X111507769Y-94869525D01*
X111571011Y-95019001D01*
X111600408Y-95134633D01*
X111749884Y-95197875D01*
X111865516Y-95227272D01*
X111928757Y-95376748D01*
X111899360Y-95492380D01*
X111749884Y-95555621D01*
X111634252Y-95585018D01*
X111571011Y-95734494D01*
X111541614Y-95850126D01*
X111392137Y-95913367D01*
X111288892Y-95933622D01*
X111228264Y-96037063D01*
X111213264Y-96271114D01*
X111203137Y-96477604D01*
X111151416Y-96598860D01*
X111034391Y-96628860D01*
X110918759Y-96658258D01*
X110855518Y-96807734D01*
X110826121Y-96923366D01*
X110676644Y-96986607D01*
X110573399Y-97006861D01*
X110512771Y-97110303D01*
X110497771Y-97344353D01*
X110497771Y-97702100D01*
X111392137Y-97702100D01*
X112286504Y-97702100D01*
X112286504Y-96807734D01*
X112286504Y-96628860D01*
X112644250Y-96628860D01*
X112644250Y-97702100D01*
X112644886Y-98018062D01*
X112650554Y-98369727D01*
X112666272Y-98591645D01*
X112696979Y-98713459D01*
X112747616Y-98764809D01*
X112823123Y-98775339D01*
X112926369Y-98795594D01*
X112986996Y-98899035D01*
X113001997Y-99133086D01*
X113012124Y-99339576D01*
X113063844Y-99460832D01*
X113180870Y-99490832D01*
X113296502Y-99520229D01*
X113359743Y-99669706D01*
X113389140Y-99785337D01*
X113538616Y-99848579D01*
X113654248Y-99877976D01*
X113717490Y-100027452D01*
X113737744Y-100130697D01*
X113841185Y-100191325D01*
X114075236Y-100206325D01*
X114281726Y-100196198D01*
X114402982Y-100144477D01*
X114432983Y-100027452D01*
X114462380Y-99911820D01*
X114611856Y-99848579D01*
X114727488Y-99819182D01*
X114790729Y-99669706D01*
X114820126Y-99554074D01*
X114969602Y-99490832D01*
X115072847Y-99470578D01*
X115133475Y-99367137D01*
X115148475Y-99133086D01*
X115158603Y-98926595D01*
X115210323Y-98805340D01*
X115327349Y-98775339D01*
X115380009Y-98771525D01*
X115438620Y-98737516D01*
X115475606Y-98643210D01*
X115495909Y-98458967D01*
X115504467Y-98155144D01*
X115506222Y-97702100D01*
X115506222Y-96628860D01*
X115148475Y-96628860D01*
X114941985Y-96638988D01*
X114820729Y-96690708D01*
X114790729Y-96807734D01*
X114788096Y-96854895D01*
X114752175Y-96926012D01*
X114645378Y-96965672D01*
X114431725Y-96982872D01*
X114075236Y-96986607D01*
X113886591Y-96985949D01*
X113602124Y-96976968D01*
X113443481Y-96950269D01*
X113374681Y-96896856D01*
X113359743Y-96807734D01*
X113339489Y-96704488D01*
X113236047Y-96643861D01*
X113001997Y-96628860D01*
X112644250Y-96628860D01*
X112286504Y-96628860D01*
X112286504Y-95913367D01*
X112823123Y-95913367D01*
X113060802Y-95916656D01*
X113254152Y-95938353D01*
X113340163Y-95992336D01*
X113359743Y-96092241D01*
X113362376Y-96139402D01*
X113398297Y-96210519D01*
X113505094Y-96250180D01*
X113718747Y-96267380D01*
X114075236Y-96271114D01*
X114263881Y-96270456D01*
X114548348Y-96261475D01*
X114706991Y-96234776D01*
X114775791Y-96181363D01*
X114790729Y-96092241D01*
X114800594Y-96013014D01*
X114865687Y-95948565D01*
X115027636Y-95919894D01*
X115327349Y-95913367D01*
X115863968Y-95913367D01*
X115863968Y-96628860D01*
X115863968Y-97523227D01*
G37*
%TO.C,D1*%
D13*
X111477716Y-86498071D02*
X113376297Y-88396652D01*
X112018652Y-89754297D02*
X110120071Y-87855716D01*
X113376297Y-88396652D02*
X112018652Y-89754297D01*
%TD*%
M02*
