%TF.GenerationSoftware,KiCad,Pcbnew,10.0.1*%
%TF.CreationDate,2026-05-11T17:42:04+02:00*%
%TF.ProjectId,divtiesus-acer-v0.1,64697674-6965-4737-9573-2d616365722d,rev?*%
%TF.SameCoordinates,Original*%
%TF.FileFunction,Soldermask,Top*%
%TF.FilePolarity,Negative*%
%FSLAX46Y46*%
G04 Gerber Fmt 4.6, Leading zero omitted, Abs format (unit mm)*
G04 Created by KiCad (PCBNEW 10.0.1) date 2026-05-11 17:42:04*
%MOMM*%
%LPD*%
G01*
G04 APERTURE LIST*
G04 Aperture macros list*
%AMRoundRect*
0 Rectangle with rounded corners*
0 $1 Rounding radius*
0 $2 $3 $4 $5 $6 $7 $8 $9 X,Y pos of 4 corners*
0 Add a 4 corners polygon primitive as box body*
4,1,4,$2,$3,$4,$5,$6,$7,$8,$9,$2,$3,0*
0 Add four circle primitives for the rounded corners*
1,1,$1+$1,$2,$3*
1,1,$1+$1,$4,$5*
1,1,$1+$1,$6,$7*
1,1,$1+$1,$8,$9*
0 Add four rect primitives between the rounded corners*
20,1,$1+$1,$2,$3,$4,$5,0*
20,1,$1+$1,$4,$5,$6,$7,0*
20,1,$1+$1,$6,$7,$8,$9,0*
20,1,$1+$1,$8,$9,$2,$3,0*%
G04 Aperture macros list end*
%ADD10R,0.700000X1.750000*%
%ADD11R,1.450000X1.000000*%
%ADD12R,1.000000X1.550000*%
%ADD13R,0.800000X1.500000*%
%ADD14R,1.300000X1.500000*%
%ADD15R,1.500000X1.500000*%
%ADD16R,0.800000X1.400000*%
%ADD17RoundRect,0.225000X-0.225000X-0.250000X0.225000X-0.250000X0.225000X0.250000X-0.225000X0.250000X0*%
%ADD18RoundRect,0.225000X0.225000X0.250000X-0.225000X0.250000X-0.225000X-0.250000X0.225000X-0.250000X0*%
%ADD19RoundRect,0.250000X0.250000X0.475000X-0.250000X0.475000X-0.250000X-0.475000X0.250000X-0.475000X0*%
%ADD20C,1.524000*%
%ADD21R,1.500000X2.000000*%
%ADD22R,3.800000X2.000000*%
%ADD23RoundRect,0.150000X0.875000X0.150000X-0.875000X0.150000X-0.875000X-0.150000X0.875000X-0.150000X0*%
%ADD24RoundRect,0.225000X-0.250000X0.225000X-0.250000X-0.225000X0.250000X-0.225000X0.250000X0.225000X0*%
%ADD25R,1.400000X1.200000*%
%ADD26RoundRect,0.225000X0.250000X-0.225000X0.250000X0.225000X-0.250000X0.225000X-0.250000X-0.225000X0*%
%ADD27RoundRect,0.250000X-0.250000X-0.475000X0.250000X-0.475000X0.250000X0.475000X-0.250000X0.475000X0*%
%ADD28RoundRect,0.050800X-0.600000X-1.100000X0.600000X-1.100000X0.600000X1.100000X-0.600000X1.100000X0*%
%ADD29RoundRect,0.250000X-0.600000X0.600000X-0.600000X-0.600000X0.600000X-0.600000X0.600000X0.600000X0*%
%ADD30C,1.700000*%
%ADD31RoundRect,0.200000X-0.200000X-0.275000X0.200000X-0.275000X0.200000X0.275000X-0.200000X0.275000X0*%
%ADD32R,0.800000X0.500000*%
%ADD33R,0.800000X0.400000*%
%ADD34C,2.100000*%
%ADD35C,1.750000*%
%ADD36RoundRect,0.200000X0.200000X0.275000X-0.200000X0.275000X-0.200000X-0.275000X0.200000X-0.275000X0*%
%ADD37C,4.000000*%
%ADD38R,1.600000X1.600000*%
%ADD39C,1.600000*%
%ADD40RoundRect,0.200000X-0.275000X0.200000X-0.275000X-0.200000X0.275000X-0.200000X0.275000X0.200000X0*%
%ADD41RoundRect,0.150000X-0.825000X-0.150000X0.825000X-0.150000X0.825000X0.150000X-0.825000X0.150000X0*%
%ADD42RoundRect,0.075000X-0.075000X0.662500X-0.075000X-0.662500X0.075000X-0.662500X0.075000X0.662500X0*%
%ADD43RoundRect,0.075000X-0.662500X0.075000X-0.662500X-0.075000X0.662500X-0.075000X0.662500X0.075000X0*%
G04 APERTURE END LIST*
D10*
%TO.C,J3*%
X114053000Y-86794000D03*
X115153000Y-86794000D03*
X116253000Y-86794000D03*
X117353000Y-86794000D03*
X118453000Y-86794000D03*
X119553000Y-86794000D03*
X120653000Y-86794000D03*
X121753000Y-86794000D03*
D11*
X122878000Y-96019000D03*
D12*
X111653000Y-97594000D03*
D13*
X123203000Y-94519000D03*
D14*
X122953000Y-86919000D03*
D15*
X111603000Y-86919000D03*
D16*
X111253000Y-95169000D03*
%TD*%
D17*
%TO.C,C2*%
X102143000Y-125314000D03*
X103693000Y-125314000D03*
%TD*%
D18*
%TO.C,C3*%
X91643000Y-132194000D03*
X90093000Y-132194000D03*
%TD*%
D19*
%TO.C,C14*%
X127168000Y-86764000D03*
X125268000Y-86764000D03*
%TD*%
D20*
%TO.C,Z1*%
X135648000Y-135664000D03*
X133108000Y-135664000D03*
X130568000Y-135664000D03*
X128028000Y-135664000D03*
X122948000Y-135664000D03*
X120408000Y-135664000D03*
X117868000Y-135664000D03*
X115328000Y-135664000D03*
X112788000Y-135664000D03*
X110248000Y-135664000D03*
X107708000Y-135664000D03*
X105168000Y-135664000D03*
X102628000Y-135664000D03*
X100088000Y-135664000D03*
X97548000Y-135664000D03*
X95008000Y-135664000D03*
X92468000Y-135664000D03*
X89928000Y-135664000D03*
X87388000Y-135664000D03*
X84848000Y-135664000D03*
X82308000Y-135664000D03*
X79768000Y-135664000D03*
X77228000Y-135664000D03*
X74688000Y-135664000D03*
X72148000Y-135664000D03*
X69608000Y-135664000D03*
X67068000Y-135664000D03*
X135648000Y-140744000D03*
X133108000Y-140744000D03*
X130568000Y-140744000D03*
X128028000Y-140744000D03*
X122948000Y-140744000D03*
X120408000Y-140744000D03*
X117868000Y-140744000D03*
X115328000Y-140744000D03*
X112788000Y-140744000D03*
X110248000Y-140744000D03*
X107708000Y-140744000D03*
X105168000Y-140744000D03*
X102628000Y-140744000D03*
X100088000Y-140744000D03*
X97548000Y-140744000D03*
X95008000Y-140744000D03*
X92468000Y-140744000D03*
X89928000Y-140744000D03*
X87388000Y-140744000D03*
X84848000Y-140744000D03*
X82308000Y-140744000D03*
X79768000Y-140744000D03*
X77228000Y-140744000D03*
X74688000Y-140744000D03*
X72148000Y-140744000D03*
X69608000Y-140744000D03*
X67068000Y-140744000D03*
%TD*%
D19*
%TO.C,C10*%
X128856000Y-102248000D03*
X126956000Y-102248000D03*
%TD*%
D21*
%TO.C,U5*%
X127638000Y-98794000D03*
X129938000Y-98794000D03*
D22*
X129938000Y-92494000D03*
D21*
X132238000Y-98794000D03*
%TD*%
D18*
%TO.C,C11*%
X108168000Y-132114000D03*
X106618000Y-132114000D03*
%TD*%
D23*
%TO.C,U2*%
X135343000Y-126014000D03*
X135343000Y-124744000D03*
X135343000Y-123474000D03*
X135343000Y-122204000D03*
X135343000Y-120934000D03*
X135343000Y-119664000D03*
X135343000Y-118394000D03*
X135343000Y-117124000D03*
X135343000Y-115854000D03*
X135343000Y-114584000D03*
X135343000Y-113314000D03*
X135343000Y-112044000D03*
X135343000Y-110774000D03*
X135343000Y-109504000D03*
X135343000Y-108234000D03*
X135343000Y-106964000D03*
X122243000Y-106964000D03*
X122243000Y-108234000D03*
X122243000Y-109504000D03*
X122243000Y-110774000D03*
X122243000Y-112044000D03*
X122243000Y-113314000D03*
X122243000Y-114584000D03*
X122243000Y-115854000D03*
X122243000Y-117124000D03*
X122243000Y-118394000D03*
X122243000Y-119664000D03*
X122243000Y-120934000D03*
X122243000Y-122204000D03*
X122243000Y-123474000D03*
X122243000Y-124744000D03*
X122243000Y-126014000D03*
%TD*%
D24*
%TO.C,C1*%
X102368000Y-119339000D03*
X102368000Y-120889000D03*
%TD*%
D17*
%TO.C,C12*%
X121668000Y-128439000D03*
X123218000Y-128439000D03*
%TD*%
D25*
%TO.C,X1*%
X100528000Y-96474000D03*
X98128000Y-96474000D03*
X98128000Y-98374000D03*
X100528000Y-98374000D03*
%TD*%
D26*
%TO.C,C5*%
X82368000Y-125314000D03*
X82368000Y-123764000D03*
%TD*%
D27*
%TO.C,C9*%
X131020000Y-102248000D03*
X132920000Y-102248000D03*
%TD*%
D24*
%TO.C,C6*%
X82368000Y-119339000D03*
X82368000Y-120889000D03*
%TD*%
D28*
%TO.C,JUMPER_E2*%
X96681250Y-93594000D03*
X99181250Y-93594000D03*
X101681250Y-93594000D03*
X101681250Y-87294000D03*
X99181250Y-87294000D03*
X96681250Y-87294000D03*
%TD*%
D29*
%TO.C,J1*%
X103623000Y-104761500D03*
D30*
X103623000Y-107301500D03*
X101083000Y-104761500D03*
X101083000Y-107301500D03*
X98543000Y-104761500D03*
X98543000Y-107301500D03*
X96003000Y-104761500D03*
X96003000Y-107301500D03*
X93463000Y-104761500D03*
X93463000Y-107301500D03*
%TD*%
D31*
%TO.C,R5*%
X125593000Y-128439000D03*
X127243000Y-128439000D03*
%TD*%
D32*
%TO.C,RN2*%
X81668000Y-111189000D03*
D33*
X81668000Y-111989000D03*
X81668000Y-112789000D03*
D32*
X81668000Y-113589000D03*
X83468000Y-113589000D03*
D33*
X83468000Y-112789000D03*
X83468000Y-111989000D03*
D32*
X83468000Y-111189000D03*
%TD*%
D34*
%TO.C,SW1*%
X69353000Y-91276500D03*
D35*
X70603000Y-88786500D03*
X75103000Y-88786500D03*
D34*
X76363000Y-91276500D03*
%TD*%
D18*
%TO.C,C8*%
X91643000Y-112289000D03*
X90093000Y-112289000D03*
%TD*%
D31*
%TO.C,R1*%
X106643000Y-86864000D03*
X108293000Y-86864000D03*
%TD*%
D36*
%TO.C,R4*%
X90993000Y-86839000D03*
X89343000Y-86839000D03*
%TD*%
D24*
%TO.C,C15*%
X88658000Y-95969000D03*
X88658000Y-97519000D03*
%TD*%
D37*
%TO.C,J2*%
X74128000Y-97349000D03*
X74128000Y-122349000D03*
D38*
X75548000Y-104309000D03*
D39*
X75548000Y-107079000D03*
X75548000Y-109849000D03*
X75548000Y-112619000D03*
X75548000Y-115389000D03*
X72708000Y-105694000D03*
X72708000Y-108464000D03*
X72708000Y-111234000D03*
X72708000Y-114004000D03*
%TD*%
D36*
%TO.C,R9*%
X124183000Y-102174000D03*
X122533000Y-102174000D03*
%TD*%
D17*
%TO.C,C7*%
X93668000Y-112314000D03*
X95218000Y-112314000D03*
%TD*%
D32*
%TO.C,RN1*%
X81668000Y-107014000D03*
D33*
X81668000Y-107814000D03*
X81668000Y-108614000D03*
D32*
X81668000Y-109414000D03*
X83468000Y-109414000D03*
D33*
X83468000Y-108614000D03*
X83468000Y-107814000D03*
D32*
X83468000Y-107014000D03*
%TD*%
%TO.C,RN3*%
X108448000Y-90904000D03*
D33*
X108448000Y-90104000D03*
X108448000Y-89304000D03*
D32*
X108448000Y-88504000D03*
X106648000Y-88504000D03*
D33*
X106648000Y-89304000D03*
X106648000Y-90104000D03*
D32*
X106648000Y-90904000D03*
%TD*%
D40*
%TO.C,R8*%
X104898000Y-95929000D03*
X104898000Y-97579000D03*
%TD*%
D41*
%TO.C,U6*%
X80168000Y-96019000D03*
X80168000Y-97289000D03*
X80168000Y-98559000D03*
X80168000Y-99829000D03*
X80168000Y-101099000D03*
X80168000Y-102369000D03*
X80168000Y-103639000D03*
X80168000Y-104909000D03*
X85118000Y-104909000D03*
X85118000Y-103639000D03*
X85118000Y-102369000D03*
X85118000Y-101099000D03*
X85118000Y-99829000D03*
X85118000Y-98559000D03*
X85118000Y-97289000D03*
X85118000Y-96019000D03*
%TD*%
D36*
%TO.C,R10*%
X119923000Y-102154000D03*
X118273000Y-102154000D03*
%TD*%
D17*
%TO.C,C4*%
X93693000Y-132194000D03*
X95243000Y-132194000D03*
%TD*%
D34*
%TO.C,SW2*%
X79463000Y-91276500D03*
D35*
X80713000Y-88786500D03*
X85213000Y-88786500D03*
D34*
X86473000Y-91276500D03*
%TD*%
D23*
%TO.C,U3*%
X116493000Y-129069000D03*
X116493000Y-127799000D03*
X116493000Y-126529000D03*
X116493000Y-125259000D03*
X116493000Y-123989000D03*
X116493000Y-122719000D03*
X116493000Y-121449000D03*
X116493000Y-120179000D03*
X116493000Y-118909000D03*
X116493000Y-117639000D03*
X116493000Y-116369000D03*
X116493000Y-115099000D03*
X116493000Y-113829000D03*
X116493000Y-112559000D03*
X107193000Y-112559000D03*
X107193000Y-113829000D03*
X107193000Y-115099000D03*
X107193000Y-116369000D03*
X107193000Y-117639000D03*
X107193000Y-118909000D03*
X107193000Y-120179000D03*
X107193000Y-121449000D03*
X107193000Y-122719000D03*
X107193000Y-123989000D03*
X107193000Y-125259000D03*
X107193000Y-126529000D03*
X107193000Y-127799000D03*
X107193000Y-129069000D03*
%TD*%
D26*
%TO.C,C13*%
X93358000Y-97529000D03*
X93358000Y-95979000D03*
%TD*%
D40*
%TO.C,R11*%
X78768000Y-123689000D03*
X78768000Y-125339000D03*
%TD*%
D42*
%TO.C,U1*%
X98430500Y-114526500D03*
X97930500Y-114526500D03*
X97430500Y-114526500D03*
X96930500Y-114526500D03*
X96430500Y-114526500D03*
X95930500Y-114526500D03*
X95430500Y-114526500D03*
X94930500Y-114526500D03*
X94430500Y-114526500D03*
X93930500Y-114526500D03*
X93430500Y-114526500D03*
X92930500Y-114526500D03*
X92430500Y-114526500D03*
X91930500Y-114526500D03*
X91430500Y-114526500D03*
X90930500Y-114526500D03*
X90430500Y-114526500D03*
X89930500Y-114526500D03*
X89430500Y-114526500D03*
X88930500Y-114526500D03*
X88430500Y-114526500D03*
X87930500Y-114526500D03*
X87430500Y-114526500D03*
X86930500Y-114526500D03*
X86430500Y-114526500D03*
D43*
X84768000Y-116189000D03*
X84768000Y-116689000D03*
X84768000Y-117189000D03*
X84768000Y-117689000D03*
X84768000Y-118189000D03*
X84768000Y-118689000D03*
X84768000Y-119189000D03*
X84768000Y-119689000D03*
X84768000Y-120189000D03*
X84768000Y-120689000D03*
X84768000Y-121189000D03*
X84768000Y-121689000D03*
X84768000Y-122189000D03*
X84768000Y-122689000D03*
X84768000Y-123189000D03*
X84768000Y-123689000D03*
X84768000Y-124189000D03*
X84768000Y-124689000D03*
X84768000Y-125189000D03*
X84768000Y-125689000D03*
X84768000Y-126189000D03*
X84768000Y-126689000D03*
X84768000Y-127189000D03*
X84768000Y-127689000D03*
X84768000Y-128189000D03*
D42*
X86430500Y-129851500D03*
X86930500Y-129851500D03*
X87430500Y-129851500D03*
X87930500Y-129851500D03*
X88430500Y-129851500D03*
X88930500Y-129851500D03*
X89430500Y-129851500D03*
X89930500Y-129851500D03*
X90430500Y-129851500D03*
X90930500Y-129851500D03*
X91430500Y-129851500D03*
X91930500Y-129851500D03*
X92430500Y-129851500D03*
X92930500Y-129851500D03*
X93430500Y-129851500D03*
X93930500Y-129851500D03*
X94430500Y-129851500D03*
X94930500Y-129851500D03*
X95430500Y-129851500D03*
X95930500Y-129851500D03*
X96430500Y-129851500D03*
X96930500Y-129851500D03*
X97430500Y-129851500D03*
X97930500Y-129851500D03*
X98430500Y-129851500D03*
D43*
X100093000Y-128189000D03*
X100093000Y-127689000D03*
X100093000Y-127189000D03*
X100093000Y-126689000D03*
X100093000Y-126189000D03*
X100093000Y-125689000D03*
X100093000Y-125189000D03*
X100093000Y-124689000D03*
X100093000Y-124189000D03*
X100093000Y-123689000D03*
X100093000Y-123189000D03*
X100093000Y-122689000D03*
X100093000Y-122189000D03*
X100093000Y-121689000D03*
X100093000Y-121189000D03*
X100093000Y-120689000D03*
X100093000Y-120189000D03*
X100093000Y-119689000D03*
X100093000Y-119189000D03*
X100093000Y-118689000D03*
X100093000Y-118189000D03*
X100093000Y-117689000D03*
X100093000Y-117189000D03*
X100093000Y-116689000D03*
X100093000Y-116189000D03*
%TD*%
D36*
%TO.C,R6*%
X104543000Y-132114000D03*
X102893000Y-132114000D03*
%TD*%
M02*
