M48
; DRILL file KiCad 10.0.1 date 2026-05-11T17:42:08
; FORMAT={-:-/ absolute / metric / decimal}
; #@! TF.CreationDate,2026-05-11T17:42:08+02:00
; #@! TF.GenerationSoftware,Kicad,Pcbnew,10.0.1
; #@! TF.FileFunction,Plated,1,2,PTH
FMAT,2
METRIC
; #@! TA.AperFunction,Plated,PTH,ViaDrill
T1C0.300
; #@! TA.AperFunction,Plated,PTH,ComponentDrill
T2C0.990
; #@! TA.AperFunction,Plated,PTH,ComponentDrill
T3C1.000
; #@! TA.AperFunction,Plated,PTH,ComponentDrill
T4C1.016
; #@! TA.AperFunction,Plated,PTH,ComponentDrill
T5C1.300
; #@! TA.AperFunction,Plated,PTH,ComponentDrill
T6C3.200
%
G90
G05
T1
X65.893Y-95.339
X65.893Y-108.739
X65.893Y-124.664
X65.893Y-132.764
X65.893Y-138.889
X65.918Y-101.939
X65.968Y-117.589
X69.668Y-120.189
X70.443Y-119.464
X70.698Y-116.419
X71.268Y-119.089
X72.218Y-131.864
X72.657Y-128.913
X73.243Y-92.414
X73.343Y-138.914
X74.193Y-118.089
X76.293Y-100.489
X76.518Y-99.064
X76.793Y-116.689
X77.253Y-101.527
X77.346Y-116.167
X77.718Y-98.589
X78.031Y-115.781
X78.333Y-101.639
X78.343Y-93.811
X78.934Y-100.493
X79.0Y-115.682
X79.388Y-108.624
X79.968Y-125.314
X80.018Y-119.364
X80.218Y-102.339
X80.268Y-138.889
X80.743Y-124.339
X80.768Y-96.014
X81.276Y-123.044
X81.468Y-137.264
X81.618Y-109.414
X81.643Y-107.014
X81.868Y-99.949
X81.918Y-92.914
X81.918Y-118.414
X82.518Y-90.114
X82.568Y-113.39
X82.978Y-103.014
X83.097Y-123.043
X83.143Y-126.439
X83.308Y-106.035
X83.593Y-97.722
X84.178Y-110.104
X84.218Y-132.564
X84.393Y-92.389
X85.393Y-109.414
X85.418Y-107.654
X85.437Y-108.606
X85.618Y-106.614
X85.668Y-128.964
X85.932Y-110.001
X85.968Y-111.014
X86.118Y-119.214
X86.418Y-126.354
X86.718Y-99.714
X86.726Y-110.795
X86.818Y-107.814
X86.818Y-124.314
X86.918Y-127.814
X87.118Y-97.314
X87.118Y-118.189
X87.418Y-132.014
X87.678Y-119.454
X87.818Y-121.569
X87.818Y-125.214
X87.868Y-120.564
X88.118Y-126.354
X88.368Y-122.649
X88.708Y-91.244
X88.718Y-125.814
X88.793Y-132.089
X88.918Y-111.114
X88.918Y-116.014
X88.918Y-117.614
X89.518Y-122.649
X90.058Y-124.714
X90.243Y-91.249
X90.268Y-126.639
X90.593Y-122.114
X91.118Y-139.514
X91.658Y-128.574
X91.693Y-112.289
X91.762Y-126.508
X91.818Y-111.014
X91.818Y-121.414
X91.868Y-108.914
X91.968Y-109.889
X92.111Y-124.707
X92.143Y-117.214
X92.418Y-127.939
X92.718Y-103.464
X92.718Y-115.814
X92.768Y-109.989
X92.783Y-120.314
X92.783Y-121.914
X92.968Y-117.164
X93.198Y-111.094
X93.461Y-99.532
X93.718Y-109.514
X93.788Y-117.674
X93.79Y-128.011
X93.863Y-122.014
X93.993Y-89.339
X94.018Y-119.514
X94.093Y-126.964
X94.258Y-120.624
X94.403Y-122.814
X94.718Y-94.114
X94.718Y-96.214
X94.743Y-109.229
X94.743Y-110.989
X95.888Y-126.374
X96.178Y-111.014
X96.293Y-139.514
X96.418Y-127.714
X96.548Y-125.764
X96.568Y-121.094
X96.718Y-118.214
X96.89Y-116.514
X96.982Y-127.132
X97.038Y-120.314
X97.168Y-122.514
X97.228Y-121.657
X97.318Y-127.814
X97.629Y-113.298
X97.833Y-111.014
X97.958Y-90.629
X97.971Y-115.724
X97.988Y-98.364
X98.088Y-131.352
X98.308Y-121.695
X98.418Y-127.814
X98.75Y-123.346
X98.768Y-113.298
X98.808Y-118.564
X98.818Y-132.214
X98.896Y-124.091
X98.905Y-121.015
X99.181Y-87.294
X100.228Y-90.664
X100.418Y-112.214
X100.618Y-109.914
X101.29Y-122.729
X101.318Y-132.154
X101.453Y-117.229
X101.55Y-130.246
X101.918Y-127.569
X102.018Y-112.214
X102.043Y-117.764
X102.074Y-121.958
X102.178Y-129.124
X102.238Y-114.014
X102.498Y-90.664
X102.51Y-118.389
X102.614Y-123.453
X102.878Y-95.334
X103.062Y-112.758
X103.278Y-120.034
X103.383Y-124.211
X103.718Y-133.094
X103.869Y-114.385
X103.968Y-127.554
X103.98Y-123.671
X104.118Y-141.514
X104.293Y-89.389
X104.458Y-117.739
X104.458Y-118.814
X104.518Y-113.914
X104.518Y-126.414
X104.954Y-127.037
X105.018Y-121.989
X105.024Y-119.772
X105.028Y-137.674
X105.229Y-113.099
X105.318Y-107.314
X105.318Y-130.714
X105.338Y-120.814
X105.438Y-132.944
X105.87Y-114.531
X105.889Y-123.307
X106.318Y-139.539
X106.343Y-100.314
X107.118Y-116.339
X107.118Y-127.814
X107.193Y-118.909
X107.218Y-120.114
X107.218Y-124.014
X107.236Y-138.032
X107.72Y-97.248
X108.118Y-137.514
X108.293Y-86.864
X108.718Y-122.114
X108.718Y-128.414
X108.825Y-127.662
X108.858Y-93.384
X108.908Y-126.144
X108.918Y-130.914
X108.968Y-136.814
X109.048Y-97.984
X109.068Y-120.794
X109.693Y-92.089
X109.718Y-137.514
X109.738Y-139.344
X109.788Y-119.454
X109.808Y-101.824
X109.818Y-132.914
X109.918Y-118.214
X110.09Y-125.739
X110.198Y-87.714
X110.355Y-126.451
X110.636Y-129.614
X110.716Y-139.312
X110.718Y-132.914
X110.928Y-128.73
X111.292Y-123.578
X111.418Y-127.614
X111.718Y-130.604
X111.858Y-137.554
X112.018Y-121.504
X112.138Y-132.504
X112.238Y-118.244
X112.758Y-123.194
X112.801Y-126.097
X113.008Y-121.124
X113.018Y-90.644
X113.058Y-127.514
X113.108Y-100.844
X113.118Y-105.114
X113.278Y-119.514
X113.398Y-130.514
X113.508Y-118.344
X113.628Y-138.314
X113.818Y-132.714
X113.886Y-129.014
X113.968Y-88.464
X114.018Y-101.074
X114.018Y-103.214
X114.078Y-122.124
X114.106Y-126.204
X114.418Y-130.914
X114.528Y-119.524
X114.646Y-126.825
X114.788Y-97.404
X114.928Y-118.314
X115.018Y-88.414
X115.118Y-132.939
X115.138Y-122.094
X115.193Y-86.439
X115.243Y-90.589
X115.318Y-137.714
X116.118Y-130.904
X116.118Y-132.214
X116.443Y-113.864
X116.443Y-115.089
X116.443Y-117.664
X116.493Y-116.389
X116.493Y-120.179
X116.493Y-121.449
X116.518Y-112.514
X116.518Y-118.914
X116.708Y-134.904
X117.878Y-131.054
X117.918Y-137.014
X118.293Y-90.139
X118.318Y-117.614
X118.343Y-94.764
X118.368Y-111.764
X118.368Y-113.989
X118.368Y-115.614
X118.393Y-112.764
X118.468Y-86.389
X119.043Y-127.764
X119.318Y-104.714
X119.508Y-113.354
X119.518Y-86.389
X119.908Y-102.114
X119.988Y-98.754
X120.145Y-126.275
X120.253Y-133.039
X120.318Y-105.114
X120.318Y-110.114
X120.418Y-116.614
X120.418Y-128.514
X120.443Y-112.764
X120.443Y-113.989
X120.443Y-115.264
X120.468Y-111.764
X120.518Y-89.314
X120.568Y-86.439
X121.288Y-138.144
X121.743Y-86.414
X122.018Y-132.294
X122.193Y-115.864
X122.218Y-110.814
X122.268Y-112.089
X123.718Y-90.114
X124.148Y-102.174
X124.278Y-126.054
X124.618Y-127.674
X125.188Y-132.998
X125.318Y-134.114
X125.318Y-138.314
X125.518Y-129.414
X126.318Y-129.914
X127.018Y-107.014
X127.018Y-125.414
X127.118Y-90.114
X127.118Y-123.714
X127.218Y-130.014
X127.634Y-112.044
X127.893Y-133.439
X128.268Y-123.489
X128.293Y-124.764
X128.293Y-131.139
X128.718Y-128.314
X129.217Y-140.013
X129.248Y-139.254
X129.518Y-112.014
X130.943Y-131.164
X131.368Y-133.464
X131.918Y-106.314
X131.918Y-115.854
X131.918Y-139.264
X131.918Y-140.064
X132.118Y-89.939
X132.268Y-130.164
X132.718Y-105.114
X133.318Y-106.714
X133.518Y-104.114
X134.318Y-137.314
X135.543Y-103.314
X137.118Y-93.389
X137.118Y-97.439
X137.16Y-127.762
X137.193Y-101.539
X137.218Y-113.854
X137.218Y-140.514
X137.293Y-139.139
X137.468Y-117.589
X137.468Y-122.514
X137.793Y-108.214
X137.793Y-109.504
X137.793Y-110.839
T2
X70.603Y-88.786
X75.103Y-88.786
X80.713Y-88.786
X85.213Y-88.786
T3
X72.708Y-105.694
X72.708Y-108.464
X72.708Y-111.234
X72.708Y-114.004
X75.548Y-104.309
X75.548Y-107.079
X75.548Y-109.849
X75.548Y-112.619
X75.548Y-115.389
X93.463Y-104.761
X93.463Y-107.301
X96.003Y-104.761
X96.003Y-107.301
X98.543Y-104.761
X98.543Y-107.301
X101.083Y-104.761
X101.083Y-107.301
X103.623Y-104.761
X103.623Y-107.301
T4
X67.068Y-135.664
X67.068Y-140.744
X69.608Y-135.664
X69.608Y-140.744
X72.148Y-135.664
X72.148Y-140.744
X74.688Y-135.664
X74.688Y-140.744
X77.228Y-135.664
X77.228Y-140.744
X79.768Y-135.664
X79.768Y-140.744
X82.308Y-135.664
X82.308Y-140.744
X84.848Y-135.664
X84.848Y-140.744
X87.388Y-135.664
X87.388Y-140.744
X89.928Y-135.664
X89.928Y-140.744
X92.468Y-135.664
X92.468Y-140.744
X95.008Y-135.664
X95.008Y-140.744
X97.548Y-135.664
X97.548Y-140.744
X100.088Y-135.664
X100.088Y-140.744
X102.628Y-135.664
X102.628Y-140.744
X105.168Y-135.664
X105.168Y-140.744
X107.708Y-135.664
X107.708Y-140.744
X110.248Y-135.664
X110.248Y-140.744
X112.788Y-135.664
X112.788Y-140.744
X115.328Y-135.664
X115.328Y-140.744
X117.868Y-135.664
X117.868Y-140.744
X120.408Y-135.664
X120.408Y-140.744
X122.948Y-135.664
X122.948Y-140.744
X128.028Y-135.664
X128.028Y-140.744
X130.568Y-135.664
X130.568Y-140.744
X133.108Y-135.664
X133.108Y-140.744
X135.648Y-135.664
X135.648Y-140.744
T5
X69.353Y-91.276
X76.363Y-91.276
X79.463Y-91.276
X86.473Y-91.276
T6
X74.128Y-97.349
X74.128Y-122.349
M30
